<svg width="328" height="286" viewBox="0 0 328 286" fill="none" xmlns="http://www.w3.org/2000/svg">
<path d="M215.77 106.605C211.268 97.3007 205.264 89.99 198.66 83.6762C184.852 70.7163 168.943 63.0732 151.533 58.7533C133.522 54.101 115.211 53.1041 96.6004 54.7656C84.2932 56.0948 72.2861 57.7564 60.2791 60.7471C59.3786 61.0794 58.1779 61.4117 56.9772 61.744C57.2773 63.0732 57.2773 64.0702 57.5775 65.3994C62.0802 81.0177 63.8812 96.9684 62.9807 113.251C61.4798 140.833 56.0766 167.085 44.6699 191.675C35.9648 210.949 25.1585 228.229 11.0502 242.851C-9.06161 263.786 -32.4754 277.743 -59.7914 282.395C-74.5 284.721 -88.9085 284.721 -103.317 280.401C-120.127 275.084 -133.935 264.783 -141.74 246.506C-145.642 237.201 -147.143 227.564 -147.743 217.595C-149.244 185.362 -140.539 156.451 -122.228 131.196C-106.019 108.931 -86.2069 91.6515 -64.5942 76.3655C-48.0845 64.7348 -30.6743 55.0979 -12.3636 47.1226C-10.8627 46.458 -9.36179 45.4611 -7.26056 44.4642C-11.463 40.8088 -15.3653 39.4796 -19.5678 38.8149C-55.5889 30.8396 -87.1075 41.4734 -113.823 69.0548C-121.928 77.3624 -128.832 86.3346 -135.436 96.3038C-136.036 97.3007 -136.937 97.9653 -137.837 99.6269C-147.743 91.9838 -157.349 84.6731 -167.555 77.0301C-163.953 72.0455 -160.651 67.0609 -157.049 62.741C-142.64 44.4642 -126.431 28.1812 -106.919 16.8828C-91.9103 7.91055 -75.7007 2.92598 -58.5907 1.26445C-48.3847 0.267535 -38.1787 -0.397086 -27.9727 0.267524C-6.96039 1.26444 12.5511 7.24594 29.3609 21.8674C30.8618 23.1966 32.0625 24.1935 33.5634 25.5227C34.7641 26.5196 35.9648 27.8489 37.4657 29.1781C38.6664 29.1781 40.1673 29.1781 41.6682 28.8458C57.5775 24.5258 73.4869 21.2028 89.9966 19.2089C122.716 15.5536 155.135 17.5474 186.353 30.175C204.664 37.4857 220.873 48.4518 234.381 64.0702C242.786 74.0393 249.69 85.0054 254.793 97.3007C255.394 98.9622 256.294 100.624 257.495 102.95C260.196 102.95 263.198 102.95 265.9 102.95C277.607 103.282 289.013 104.611 300.42 108.267C327.436 116.907 342.145 137.177 346.947 167.085C350.549 190.679 346.647 213.608 339.443 235.872C329.837 265.447 316.329 292.696 298.019 316.955C293.816 322.604 289.013 327.588 284.811 332.905C280.308 331.244 262.298 316.955 254.493 309.312C257.795 305.324 260.797 301.336 264.099 297.349C279.108 278.407 291.715 257.804 300.42 234.875C304.923 223.577 308.525 211.946 309.726 199.651C310.326 192.008 310.626 184.032 309.425 176.389C306.123 155.786 294.717 144.156 276.106 141.165C272.804 140.5 269.502 140.5 266.2 140.168C264.699 144.156 265.299 147.811 265.299 151.134C265.9 171.737 263.799 192.008 258.996 211.946C252.092 240.192 241.285 266.776 224.175 289.041C204.964 313.964 181.85 332.241 152.433 339.219C132.321 343.871 111.909 344.868 91.7976 338.554C77.9895 334.234 65.9825 326.591 56.677 313.964C49.7729 304.327 45.2703 293.361 44.0696 281.066C40.4675 246.506 50.3733 216.931 70.7853 191.343C94.4992 161.436 123.916 141.165 156.936 126.876C174.946 119.233 193.257 113.251 212.168 109.264C212.468 107.934 213.969 107.27 215.77 106.605ZM226.277 143.159C224.475 143.159 223.275 143.159 222.074 143.491C179.749 153.46 140.426 170.076 107.407 202.309C95.0995 214.272 85.7941 228.229 81.2914 246.174C79.1902 255.146 78.2897 264.45 80.0907 273.423C83.0925 288.044 91.4974 297.681 104.405 302.665C112.81 305.989 121.515 305.656 129.92 304.992C151.533 302.665 169.543 292.696 184.852 275.749C200.461 258.469 210.968 237.866 218.172 214.937C225.076 193.337 227.777 171.073 226.877 148.143C226.877 146.15 226.577 145.153 226.277 143.159ZM17.9543 74.0393C15.853 74.704 14.3521 75.0362 13.1514 75.3685C-13.5643 85.67 -38.7791 99.6268 -61.2923 118.568C-71.7985 127.208 -82.0045 136.845 -90.1092 148.476C-104.217 168.414 -111.722 190.679 -110.221 216.266C-109.32 232.217 -98.214 245.177 -84.706 246.506C-66.0951 248.167 -48.9851 243.183 -33.3759 232.217C-11.1629 216.266 3.84596 194.002 14.052 167.417C20.0555 151.799 23.3574 135.184 24.5581 118.236C25.4586 105.608 24.8583 92.9808 20.6558 80.6855C19.4551 78.3593 18.8548 76.3655 17.9543 74.0393Z" fill="#90B9FA" fill-opacity="0.46"/>
</svg>
