<svg width="609" height="490" viewBox="0 0 609 490" fill="none" xmlns="http://www.w3.org/2000/svg">
<path d="M139.421 268.394C137.646 269.137 135.8 270.645 136.211 272.508C138.507 282.914 142.691 292.052 147.734 300.48C159.546 319.815 175.716 334.063 194.831 345.201C214.541 356.925 235.891 364.733 258.53 369.722C273.581 372.768 288.394 375.338 303.674 376.443V376.443C306.04 376.371 308.344 374.658 308.51 372.308V372.308C308.659 353.455 312.127 335.225 318.912 317.62C330.378 287.789 346.001 260.852 368.155 237.945C385.241 219.905 404.116 204.831 425.971 193.895C457.158 178.205 489.806 171.411 523.812 176.296C542.06 179.123 559.135 184.403 574.693 194.441C592.747 206.457 605.493 222.864 608.323 245.855C609.68 257.534 608.074 268.699 605.284 279.9C595.742 315.955 575.272 344.61 544.702 365.719C517.673 384.304 488.126 396.078 457.144 404.996C433.494 411.758 409.477 415.993 384.977 418.069V418.069C381.763 418.36 380.144 422.301 382.485 424.492C384.986 426.833 387.68 428.463 390.596 429.859C430.483 451.843 471.57 451.679 512.917 431.088C525.44 424.907 536.773 417.554 548.1 408.993V408.993C550.12 407.322 553.465 408.012 555.03 410.088C558.899 415.222 562.741 420.289 566.621 425.373C573.539 434.437 571.811 448.007 561.925 453.882V453.882C538.431 468.734 513.503 480.73 486.412 486.025C465.474 490.409 444.514 489.96 423.654 485.52C411.209 482.879 398.88 479.871 387.019 475.399C362.468 466.601 341.446 452.863 326.66 430.598C325.348 428.584 324.275 427.046 322.963 425.032C322.743 424.716 322.528 424.385 322.314 424.041C320.532 421.18 317.901 418.729 314.526 418.402V418.402C294.154 417.331 274.133 415.161 253.868 411.308C213.809 403.345 176.09 389.27 143.529 363.921C124.397 349.159 109.039 331.14 98.5158 308.987C92.0565 294.926 87.726 280.317 85.9968 264.904V264.904C85.7153 260.393 82.0916 256.86 77.7605 255.521C76.7609 255.212 75.774 254.907 74.8187 254.612C61.0618 249.956 48.0108 244.312 35.7767 236.106C6.79514 216.69 -3.51657 188.972 1.29548 154.269C5.31299 126.961 17.9904 103.134 34.3475 81.2499C56.1181 52.1927 81.6962 27.1276 111.916 7.1167C113.482 6.06362 115.072 5.05869 116.675 4.08442C126.534 -1.91061 138.582 -0.34168 145.43 8.8244C147.227 11.2302 149.064 13.7631 150.846 16.2901C156.655 24.5265 153.949 35.9183 145.228 41.1419V41.1419C120.789 56.5061 98.6119 74.5805 80.2427 96.6471C70.9386 107.442 62.585 118.934 56.8439 132.037C53.4481 140.236 50.2914 148.91 49.03 157.769C45.7071 181.673 55.1402 198.664 76.1453 208.778V208.778C82.6153 212.193 90.1852 209.236 92.3081 202.223C92.3555 202.067 92.4037 201.911 92.4529 201.757C98.9774 178.843 108.587 157.285 121.281 137.082C139.383 108.499 161.526 83.1764 189.623 64.9217C221.143 44.5087 254.953 32.8463 292.266 35.9389C317.734 38.1839 342.274 44.5654 363.891 58.8895C378.737 68.7076 390.282 81.5261 396.875 98.8451C401.672 111.99 403.157 125.719 400.262 139.702C392.393 179.09 370.266 208.037 337.09 228.742C298.483 252.996 256.502 264.544 212.353 268.185C188.997 269.953 165.857 269.888 142.713 267.553C141.493 267.43 140.554 267.919 139.421 268.394V268.394ZM136.768 219.685C135.936 222.588 137.97 225.869 140.994 226.015V226.015C194.654 230.542 247.09 226.65 297.542 203.244C316.328 194.576 332.258 182.613 343.896 164.497C349.537 155.384 353.873 145.465 354.889 134.922C356.467 117.716 349.891 104.022 336.345 93.8014C327.552 87.0613 317.119 84.2375 306.925 81.8898C280.495 76.5326 255.65 80.914 231.555 93.9721C206.988 107.286 187.302 126.131 170.711 148.747C154.943 170.009 143.922 193.544 136.936 219.13C136.875 219.322 136.819 219.506 136.768 219.685ZM357.995 371.198C358.44 374.658 361.156 377.438 364.659 377.606V377.606C399.938 376.049 434.721 369.915 468.053 357.3C483.539 351.633 499.018 344.758 512.708 334.916C536.43 318.124 553.142 296.35 560.35 267.615C564.885 249.715 556.275 231.37 540.733 224.957C519.262 216.307 497.234 215.528 474.885 221.887C442.958 231.317 417.352 250.342 395.921 275.885C383.321 290.889 373.572 307.981 366.197 326.208C360.776 339.588 357.081 353.502 357.607 368.337C357.623 368.778 357.68 369.217 357.757 369.651C357.852 370.181 357.93 370.695 357.995 371.198Z" fill="#BFFDE8" fill-opacity="0.42"/>
</svg>
