<svg width="330" height="381" viewBox="0 0 330 381" fill="none" xmlns="http://www.w3.org/2000/svg">
<path d="M513.682 339.034L474.022 6.72554L529.093 0.42872L568.754 332.737L513.682 339.034ZM522.146 125.094C521.676 128.191 520.429 131.81 519.597 135.383C510.752 170.296 499.74 201.11 486.196 228.302C472.653 255.494 455.234 278.348 433.474 296.483C411.714 314.618 385.721 325.414 354.666 328.965C331.478 331.616 310.421 327.504 291.081 316.676C271.74 305.849 256.029 290.259 243.896 269.48C231.348 248.749 223.927 225.257 220.755 198.673C217.786 173.803 219.475 149.27 226.236 125.027C232.996 100.784 244.874 80.7362 262.181 63.9797C279.074 47.2705 300.564 37.4245 325.822 34.5365C351.908 31.5538 373.272 38.2384 389.551 55.0665C405.779 71.4658 415.531 93.3865 418.806 120.829C422.593 152.559 415.511 184.662 398.027 217.521C380.543 250.379 352.921 279.181 315.06 303.069C277.612 326.909 232.827 342.026 181.482 347.897C153.326 351.116 131.282 349.291 115.352 342.419C99.0083 335.595 89.9175 322.726 87.6658 303.86C86.0794 290.567 87.0285 277.42 90.5644 264.846C94.1003 252.272 100.125 235.936 108.691 216.267L111.184 209.028C111.91 208.075 112.636 207.123 112.948 206.218C113.259 205.313 113.52 203.98 114.246 203.027C121.513 186.55 126.342 174.262 129.562 166.071C132.781 157.879 134.033 150.782 133.419 145.636C133.112 143.064 131.977 140.586 130.478 138.584C128.566 136.629 126.342 135.579 123.03 135.958C116.405 136.716 109.673 140.093 103.299 146.472C96.9249 152.851 88.4248 162.516 77.3844 175.514C74.8441 178.847 72.3039 182.179 69.2984 185.131C66.2929 188.082 63.7526 191.415 60.8494 195.224C47.2177 211.126 32.4506 224.55 15.7715 236.019C-0.90761 247.488 -20.1177 255.335 -42.2215 260.035L-48.3114 209.01C-30.297 205.211 -15.1253 198.696 -1.50284 189.749C11.6544 180.421 24.5557 168.95 36.2707 154.571C38.0852 152.19 39.5368 150.286 41.8164 148.287C43.6821 146.335 45.5478 144.383 47.3622 142.002C58.4538 129.433 68.0937 118.769 75.9703 110.914C83.847 103.06 92.7054 96.3965 102.494 90.4963C112.334 85.0248 123.207 81.1738 134.801 79.8482C149.293 78.1911 161.399 81.1533 170.755 89.2109C180.111 97.2685 185.582 107.943 187.271 122.093C188.602 133.242 187.55 145.532 183.754 159.44C180.371 173.3 174.658 188.731 167.493 206.066L163.808 213.877C163.497 214.782 163.134 215.258 163.236 216.115C162.924 217.02 162.562 217.496 162.562 217.496C155.397 234.832 149.893 248.5 146.101 258.93C142.309 269.361 141.262 278.173 142.183 285.891C143.156 294.038 147.082 298.805 154.48 301.001C161.877 303.198 171.968 303.348 185.633 301.786C224.555 297.335 258.83 285.593 287.992 266.177C317.153 246.761 339.281 224.672 353.857 199.101C368.433 173.529 374.314 148.952 371.499 125.368C369.862 111.647 365.168 100.449 357.365 91.3444C349.563 82.2398 339.477 78.6121 328.297 79.8904C314.633 81.4527 303.602 87.495 295.255 98.446C286.494 109.444 280.939 122.684 277.813 138.688C274.686 154.693 274.509 170.795 276.505 187.517C278.706 205.955 284.014 222.299 292.067 237.025C300.121 251.751 310.249 262.763 322.401 269.631C334.605 276.929 347.953 279.749 362.859 278.045C385.633 275.441 406.504 263.927 424.695 244.027C443.3 224.079 458.444 199.747 470.49 170.553C482.586 141.788 490.803 112.162 495.139 81.6763L525.422 113.854C523.449 118.426 522.565 121.569 522.146 125.094ZM-59.441 404.13L-99.1017 71.8215L-44.0305 65.5247L-4.36979 397.833L-59.441 404.13Z" fill="#388EFF" fill-opacity="0.19"/>
</svg>
