<svg width="697" height="450" viewBox="0 0 697 450" fill="none" xmlns="http://www.w3.org/2000/svg">
    <path d="M606.083 449.523L606.083 1.54076L697 1.54075L697 449.523L606.083 449.523ZM661.454 166.283C660.086 170.329 657.352 174.953 655.301 179.578C634.11 224.665 610.185 263.972 582.841 298.076C555.498 332.181 522.686 359.927 483.721 380.736C444.757 401.546 400.324 411.951 349.055 411.951C310.774 411.951 277.278 403.28 247.884 385.939C218.49 368.598 195.931 345.476 180.209 315.996C163.803 286.516 156.283 254.145 156.283 218.307C156.283 184.78 163.803 152.41 179.525 121.196C195.248 89.9813 218.49 65.1254 249.935 45.472C280.696 25.8185 317.61 15.9918 359.308 15.9918C402.374 15.9918 435.87 28.1307 459.112 52.9865C482.354 77.2643 493.975 107.901 493.975 144.895C493.975 187.67 476.202 229.289 441.339 270.33C406.476 311.371 355.891 345.476 289.583 371.488C223.959 397.5 148.08 410.795 63.3158 410.795C16.832 410.795 -18.7145 405.014 -43.3236 393.453C-68.6163 381.893 -80.9208 363.395 -80.9208 337.961C-80.9208 320.042 -76.8193 302.701 -68.6163 286.516C-60.4133 270.33 -47.4251 249.521 -29.6519 224.665L-24.1832 215.416C-22.8161 214.26 -21.4489 213.104 -20.7653 211.948C-20.0817 210.792 -19.3981 209.058 -18.0309 207.902C-2.99205 187.092 7.26172 171.485 14.0976 161.08C20.9334 150.676 24.3514 141.427 24.3514 134.491C24.3514 131.022 22.9842 127.554 20.9334 124.664C18.1991 121.774 14.7812 120.039 9.31249 120.039C-1.62488 120.039 -13.2458 123.508 -24.8668 131.022C-36.4878 138.537 -52.2102 150.098 -72.7178 165.705C-77.5029 169.751 -82.288 173.797 -87.7567 177.266C-93.2254 180.734 -98.0105 184.78 -103.479 189.405C-128.772 208.48 -155.432 224.087 -184.826 236.804C-214.22 249.521 -247.032 257.035 -283.946 259.926L-283.946 191.139C-253.868 188.826 -227.892 182.468 -203.966 172.641C-180.724 162.237 -157.482 148.942 -135.608 131.6C-132.19 128.71 -129.455 126.398 -125.354 124.086C-121.936 121.774 -118.518 119.461 -115.1 116.571C-94.5926 101.542 -76.8193 88.8252 -62.464 79.5765C-48.1087 70.3278 -32.3862 62.8133 -15.2966 56.4548C1.79305 50.6744 20.2499 47.2061 39.3903 47.2061C63.3158 47.2061 82.4562 52.9866 96.1279 65.1254C109.8 77.2643 116.635 92.2934 116.635 111.369C116.635 126.398 112.534 142.583 103.647 160.502C95.4443 178.422 83.1398 198.075 68.1009 220.041L60.5814 229.867C59.8979 231.024 59.2143 231.602 59.2143 232.758C58.5307 233.914 57.8471 234.492 57.8471 234.492C42.8082 256.457 31.1873 273.799 22.9842 287.094C14.7812 300.389 11.3633 311.949 11.3633 322.354C11.3633 333.337 16.832 340.274 28.4529 344.32C40.0739 348.366 56.4799 350.1 79.0383 350.1C143.295 350.1 201.4 339.695 252.669 318.308C303.938 296.92 344.27 270.908 372.98 239.116C401.691 207.324 416.046 175.531 416.046 143.739C416.046 125.242 410.577 109.635 399.64 96.3397C388.703 83.0447 372.98 76.6863 354.523 76.6863C331.965 76.6863 312.825 83.0447 297.102 96.3397C280.696 109.635 269.075 126.398 260.872 147.207C252.669 168.017 249.251 189.405 249.251 211.948C249.251 236.804 254.72 259.348 264.974 280.157C275.227 300.967 289.583 317.152 308.04 328.135C326.496 339.695 347.688 345.476 372.297 345.476C409.894 345.476 446.124 333.337 479.62 309.637C513.799 285.938 543.193 255.879 568.486 218.885C593.778 182.468 612.919 144.317 625.907 104.432L668.973 151.832C664.871 157.612 662.821 161.658 661.454 166.283ZM-340 448.945L-340 0.962804L-249.083 0.962797L-249.083 448.945L-340 448.945Z" fill="#5EA3FE"/>
</svg>
