<svg width="230" height="44" viewBox="0 0 230 44" fill="none" xmlns="http://www.w3.org/2000/svg">
<g clip-path="url(#clip0_76_1904)">
<path d="M0.960334 5.41903C0.342976 4.80167 0 4.04712 0 3.15538C0 2.26364 0.342976 1.57769 0.960334 0.960334C1.57769 0.342976 2.40084 0 3.29257 0C4.18431 0 4.87027 0.342976 5.48762 0.960334C6.10498 1.57769 6.44796 2.33224 6.44796 3.15538C6.44796 4.04712 6.17358 4.80167 5.48762 5.41903C4.87027 6.03639 4.11572 6.37936 3.29257 6.37936C2.40084 6.37936 1.57769 6.03639 0.960334 5.41903ZM5.8992 9.67194V33.6117H0.548762V9.67194H5.8992Z" fill="#1B1C1D"/>
<path d="M22.6375 33.4741H22.5689C22.226 33.6113 21.7458 33.7485 21.1284 33.8171C20.5111 33.9543 19.8937 33.9543 19.3449 33.9543C16.9441 33.9543 15.1606 33.2683 14.1317 31.8278C13.0342 30.4559 12.554 28.3981 12.554 25.7915V13.7873H8.98706V9.74015H12.554V2.94922H17.9044V9.74015H22.2945V13.7873H17.9044V26.0658C17.9044 27.1634 18.1102 27.9179 18.4532 28.4667C18.8648 28.9468 19.4821 29.2212 20.4425 29.2212C20.9226 29.2212 21.4028 29.2212 21.7458 29.1526C22.0888 29.084 22.3631 29.0154 22.5689 29.0154H22.6375V33.4741Z" fill="#1B1C1D"/>
<path d="M32.6517 1.7832V33.6114H27.2327V1.7832H32.6517ZM29.3591 21.9502C29.4277 21.6758 29.5649 21.3329 29.7707 20.9899C31.074 17.8345 32.5145 15.0221 34.0922 12.5527C35.6699 10.0832 37.6591 8.16257 39.9914 6.72206C42.3236 5.21297 44.9988 4.52701 48.0856 4.52701C50.3493 4.52701 52.4071 5.14437 54.1906 6.37909C55.9741 7.6138 57.2774 9.26009 58.2377 11.3179C59.1981 13.3758 59.6782 15.708 59.6782 18.2461C59.6782 20.6469 59.1981 22.9106 58.2377 25.1056C57.2774 27.3007 55.9055 29.0841 54.0534 30.456C52.2014 31.8279 50.0063 32.5139 47.4683 32.5139C44.8617 32.5139 42.8724 31.6222 41.5005 29.9073C40.1286 28.1924 39.374 25.9973 39.374 23.3907C39.374 20.3725 40.403 17.4229 42.5294 14.4733C44.6559 11.5237 47.6741 9.19149 51.584 7.27083C55.5625 5.48735 60.0898 4.52701 65.1659 4.52701C67.9097 4.52701 70.1047 4.93859 71.5452 5.76173C73.0543 6.58487 73.8089 7.88818 73.8089 9.67166C73.8089 10.975 73.5345 12.1411 73.0543 13.3072C72.5742 14.4733 71.8196 15.9138 70.7221 17.6973L70.3791 18.3833C70.3105 18.4519 70.2419 18.5205 70.1733 18.589C70.1733 18.6576 70.1047 18.7948 70.0361 18.8634C69.1444 20.3039 68.527 21.4701 68.1155 22.156C67.7039 22.9106 67.4981 23.5279 67.4981 24.0767C67.4981 24.3511 67.5667 24.5568 67.7039 24.7626C67.8411 24.9684 68.0469 25.1056 68.3898 25.1056C69.0758 25.1056 69.7617 24.8312 70.4477 24.3511C71.1336 23.8023 72.094 22.9791 73.3287 21.8816C73.6031 21.6072 73.8775 21.3329 74.2204 21.0585C74.4948 20.7841 74.8378 20.5097 75.1808 20.1667C76.6899 18.7948 78.3362 17.6973 80.051 16.8056C81.8345 15.9138 83.7552 15.3651 85.9502 15.1593V20.0296C84.1668 20.1667 82.5891 20.6469 81.1486 21.3329C79.7767 22.0188 78.4048 23.0477 77.0328 24.2139C76.8271 24.4196 76.6213 24.5568 76.4155 24.7626C76.2097 24.8998 76.0039 25.1056 75.7981 25.3114C74.5634 26.4089 73.5345 27.2321 72.6427 27.918C71.751 28.604 70.8593 29.0841 69.8303 29.5643C68.8014 29.9759 67.7039 30.1817 66.5378 30.1817C65.0973 30.1817 63.9997 29.7701 63.1766 28.9469C62.3535 28.1238 61.9419 27.0263 61.9419 25.6544C61.9419 24.6254 62.2163 23.4593 62.6964 22.156C63.1766 20.9213 63.9311 19.4808 64.8229 17.9031L65.2345 17.2171C65.2345 17.1485 65.303 17.08 65.303 17.0114C65.303 16.9428 65.3716 16.8742 65.3716 16.8742C66.2634 15.2965 67.0179 14.0618 67.4295 13.17C67.9097 12.2783 68.1155 11.3865 68.1155 10.7006C68.1155 9.94604 67.7725 9.39728 67.0865 9.1229C66.4006 8.84852 65.3716 8.71133 64.0683 8.71133C60.227 8.71133 56.7286 9.46588 53.6418 10.975C50.5551 12.4841 48.1542 14.3361 46.4393 16.5998C44.7245 18.8634 43.8327 21.1271 43.8327 23.3907C43.8327 24.694 44.1757 25.7916 44.8617 26.7519C45.5476 27.7122 46.4393 28.1924 47.6055 28.1924C48.9774 28.1924 50.0749 27.7122 51.0352 26.7519C51.9956 25.7916 52.7501 24.6254 53.2303 23.1163C53.7104 21.6758 53.9162 20.0981 53.9162 18.5205C53.9162 16.737 53.5733 15.1593 52.9559 13.7188C52.3385 12.2783 51.4468 11.1122 50.3493 10.289C49.2518 9.46588 47.9484 9.0543 46.5079 9.0543C44.2443 9.0543 42.1178 9.87745 40.06 11.5923C38.0021 13.3072 36.2186 15.4337 34.7096 18.0403C33.2005 20.6469 32.0343 23.3221 31.2798 26.1345L28.6732 22.7734C29.1533 22.499 29.2219 22.2246 29.3591 21.9502ZM89.4486 1.8518V33.6114H84.0296V1.8518H89.4486Z" fill="#388EFF"/>
<path d="M98.3661 32.7198C96.7884 31.7594 95.5537 30.3189 94.5933 28.4669C93.633 26.6148 93.1528 24.3511 93.1528 21.7445C93.1528 19.0693 93.633 16.8057 94.5933 14.9536C95.5537 13.0329 96.7884 11.5924 98.3661 10.6321C99.9438 9.67174 101.659 9.12298 103.579 9.12298C105.569 9.12298 107.215 9.53455 108.587 10.4263C109.959 11.318 110.919 12.4156 111.399 13.7875L112.085 13.5817C111.879 12.8957 111.674 12.347 111.605 11.7982C111.536 11.318 111.468 10.7693 111.468 10.2205V9.80893V0.411377H116.887V33.6115H111.468V33.0627C111.468 32.9941 111.468 32.9255 111.468 32.857C111.468 32.7884 111.468 32.7198 111.468 32.6512C111.536 31.6908 111.742 30.7305 112.017 29.7702L111.399 29.5644C110.85 30.9363 109.89 31.9652 108.587 32.857C107.215 33.6801 105.569 34.0917 103.579 34.0917C101.659 34.1603 99.8752 33.6801 98.3661 32.7198ZM105.363 29.9759C106.735 29.9759 107.901 29.633 108.861 28.947C109.821 28.2611 110.576 27.3007 111.056 26.066C111.536 24.8313 111.742 23.3908 111.742 21.7445C111.742 20.0982 111.536 18.6577 111.056 17.3544C110.576 16.0511 109.89 15.0908 108.93 14.4048C107.969 13.7189 106.803 13.3759 105.363 13.3759H105.02C103.648 13.3759 102.55 13.7189 101.59 14.4048C100.63 15.0908 99.9438 16.0511 99.4636 17.2858C98.9834 18.5205 98.7776 19.961 98.7776 21.6759C98.7776 24.2139 99.3264 26.2718 100.355 27.7123C101.384 29.2214 102.962 29.9074 105.02 29.9074H105.363V29.9759Z" fill="#1B1C1D"/>
<path d="M139.042 10.6319C140.756 11.6608 142.128 13.1013 143.089 14.9534C144.049 16.8741 144.529 19.0691 144.529 21.6071V22.7732L126.557 22.8418V22.979C126.626 24.3509 126.969 25.5171 127.518 26.6146C128.066 27.7121 128.889 28.5353 129.85 29.084C130.81 29.7014 131.976 29.9758 133.211 29.9758H133.417C134.926 29.9758 136.298 29.5642 137.464 28.6038C138.63 27.7121 139.316 26.6146 139.59 25.2427H145.009C144.735 26.9576 144.049 28.4667 142.951 29.8386C141.854 31.2105 140.482 32.2394 138.767 32.9939C137.052 33.7485 135.2 34.0915 133.074 34.0915C130.604 34.0915 128.478 33.5427 126.694 32.5138C124.911 31.4849 123.47 30.0443 122.51 28.1237C121.55 26.203 121.07 24.0766 121.07 21.6071C121.07 19.0691 121.55 16.8741 122.579 14.9534C123.608 13.1013 124.98 11.5922 126.763 10.5633C128.546 9.53436 130.604 8.9856 132.937 8.9856C135.269 8.9856 137.327 9.60295 139.042 10.6319ZM139.042 19.0005C138.904 17.903 138.63 16.9426 138.15 15.9823C137.67 15.022 136.984 14.336 136.161 13.8559C135.269 13.3071 134.308 13.1013 133.074 13.1013H132.662C130.947 13.1013 129.575 13.6501 128.409 14.8162C127.243 15.9823 126.626 17.3542 126.489 19.0005H139.042Z" fill="#1B1C1D"/>
<path d="M153.517 27.85C153.997 28.6046 154.614 29.1533 155.369 29.5649C156.192 29.9765 157.084 30.1823 158.044 30.1823C159.416 30.1823 160.514 29.9079 161.405 29.2905C162.297 28.7418 162.709 27.9186 162.709 26.9583C162.709 26.0666 162.366 25.4492 161.748 24.969C161.131 24.4889 160.171 24.0773 158.936 23.8029L154.203 22.7054C152.145 22.2252 150.636 21.4707 149.675 20.3732C148.715 19.2756 148.166 17.8351 148.166 16.1202C148.166 14.6797 148.578 13.445 149.47 12.3475C150.361 11.25 151.459 10.4954 152.968 9.87807C154.409 9.32931 156.123 9.05493 157.976 9.05493C159.759 9.05493 161.337 9.39791 162.846 10.0839C164.355 10.7698 165.59 11.7301 166.55 12.9649C167.51 14.1996 167.99 15.7087 168.059 17.4922H162.571C162.503 16.4632 162.228 15.6401 161.748 14.9541C161.268 14.2682 160.651 13.788 159.965 13.445C159.279 13.1021 158.524 12.9649 157.701 12.9649C156.466 12.9649 155.437 13.2392 154.683 13.788C153.928 14.3368 153.585 15.0227 153.585 15.9145C153.585 16.669 153.791 17.2864 154.271 17.7665C154.752 18.2467 155.437 18.5897 156.466 18.8641L161.268 19.9616C163.463 20.4417 165.109 21.1963 166.344 22.3624C167.579 23.4599 168.196 24.969 168.196 26.8211C168.196 28.3988 167.785 29.7021 166.961 30.7996C166.138 31.8972 164.972 32.7203 163.463 33.3377C161.954 33.955 160.102 34.2294 158.044 34.2294C155.78 34.2294 153.86 33.8178 152.282 33.0633C150.704 32.3087 149.47 31.2112 148.578 29.9079C147.755 28.536 147.275 27.0955 147.137 25.3806H152.694C152.762 26.2723 153.037 27.1641 153.517 27.85Z" fill="#1B1C1D"/>
<path d="M172.243 5.41903C171.626 4.80167 171.283 4.04712 171.283 3.15538C171.283 2.26364 171.626 1.57769 172.243 0.960334C172.861 0.342976 173.684 0 174.576 0C175.467 0 176.153 0.342976 176.771 0.960334C177.388 1.57769 177.731 2.33224 177.731 3.15538C177.731 4.04712 177.388 4.80167 176.771 5.41903C176.153 6.03639 175.399 6.37936 174.576 6.37936C173.684 6.37936 172.861 6.03639 172.243 5.41903ZM177.182 9.67194V33.6117H171.832V9.67194H177.182Z" fill="#1B1C1D"/>
<path d="M188.087 38.1391C189.047 38.9622 190.351 39.3738 192.066 39.3738H192.34C194.123 39.3738 195.632 38.8937 196.73 37.9333C197.896 36.973 198.445 35.5325 198.445 33.5432C198.445 33.406 198.445 33.3374 198.445 33.2002C198.445 33.0631 198.445 32.9945 198.445 32.7887C198.513 31.8969 198.582 31.0738 198.651 30.3878C198.719 29.7019 198.788 29.0845 198.856 28.5358L198.239 28.33C197.69 29.6333 196.73 30.5936 195.427 31.4168C194.123 32.1713 192.546 32.5829 190.625 32.5829C188.636 32.5829 186.921 32.1027 185.412 31.0738C183.903 30.0449 182.805 28.673 182.051 26.9581C181.296 25.1746 180.884 23.1853 180.884 20.8531C180.884 18.5894 181.296 16.6002 182.051 14.8167C182.805 13.0332 183.971 11.6613 185.412 10.701C186.852 9.74066 188.636 9.19189 190.694 9.19189C192.066 9.19189 193.232 9.39768 194.261 9.74066C195.221 10.1522 196.044 10.6324 196.73 11.2498C197.416 11.8671 197.896 12.5531 198.17 13.3076L198.856 13.1018V13.0332C198.582 12.3473 198.376 11.8671 198.308 11.4555C198.239 11.1126 198.17 10.6324 198.17 10.015V9.67206H203.59V32.7887C203.59 36.3556 202.561 38.9622 200.503 40.8143C198.445 42.5978 195.632 43.4895 191.997 43.4895C188.224 43.4895 185.48 42.6664 183.697 41.0201C181.913 39.3738 180.884 37.1788 180.542 34.435H186.166C186.578 36.0813 187.127 37.316 188.087 38.1391ZM192.889 28.33C194.192 28.33 195.221 28.0556 196.113 27.4382C197.004 26.8209 197.622 25.9977 198.102 24.9002C198.582 23.8027 198.788 22.4994 198.788 20.9903C198.788 18.658 198.308 16.806 197.279 15.4341C196.25 14.0622 194.809 13.3762 192.889 13.3762H192.546C191.242 13.3762 190.145 13.6506 189.253 14.2679C188.361 14.8853 187.675 15.7084 187.195 16.8746C186.715 17.9721 186.509 19.344 186.509 20.8531C186.509 23.1167 187.058 24.9688 188.087 26.2721C189.116 27.644 190.625 28.2614 192.614 28.2614H192.889V28.33Z" fill="#1B1C1D"/>
<path d="M213.951 9.67205V10.2894C213.951 10.8382 213.882 11.3183 213.813 11.6613C213.676 12.0729 213.539 12.5531 213.333 13.239L214.019 13.3762C214.431 12.1415 215.391 11.1126 216.832 10.2894C218.272 9.46627 219.918 9.12329 221.839 9.12329C223.348 9.12329 224.72 9.39767 225.955 9.87784C227.121 10.358 228.15 11.2497 228.904 12.4159C229.659 13.6506 230.07 15.2283 230.07 17.2175V33.6118H224.72V18.1779C224.72 16.6002 224.24 15.4341 223.348 14.6795C222.456 13.925 221.222 13.582 219.575 13.582H219.507C218.478 13.582 217.517 13.7878 216.694 14.1993C215.803 14.6109 215.117 15.2283 214.636 15.9828C214.156 16.806 213.882 17.6977 213.882 18.7266V33.6118H208.531V9.67205H213.951Z" fill="#1B1C1D"/>
</g>
<defs>
<clipPath id="clip0_76_1904">
<rect width="230" height="43.4894" fill="white"/>
</clipPath>
</defs>
</svg>
