<svg width="242" height="46" viewBox="0 0 242 46" fill="none" xmlns="http://www.w3.org/2000/svg">
<g clip-path="url(#clip0_76_1854)">
<path d="M1.69446 6.19782C1.04901 5.55237 0.69043 4.76349 0.69043 3.83118C0.69043 2.89887 1.04901 2.1817 1.69446 1.53626C2.33991 0.890808 3.2005 0.532227 4.13281 0.532227C5.06513 0.532227 5.78229 0.890808 6.42774 1.53626C7.07318 2.1817 7.43177 2.97058 7.43177 3.83118C7.43177 4.76349 7.1449 5.55237 6.42774 6.19782C5.78229 6.84326 4.99341 7.20185 4.13281 7.20185C3.2005 7.20185 2.33991 6.84326 1.69446 6.19782ZM6.85804 10.6442V35.6732H1.26416V10.6442H6.85804Z" fill="white"/>
<path d="M24.3565 35.5295H24.2848C23.9262 35.6729 23.4242 35.8164 22.7788 35.8881C22.1333 36.0315 21.4879 36.0315 20.9141 36.0315C18.4041 36.0315 16.5394 35.3143 15.4637 33.8083C14.3162 32.374 13.8142 30.2225 13.8142 27.4973V14.9469H10.085V10.7156H13.8142V3.61572H19.4081V10.7156H23.9979V14.9469H19.4081V27.7841C19.4081 28.9316 19.6232 29.7205 19.9818 30.2942C20.4121 30.7962 21.0576 31.0831 22.0616 31.0831C22.5636 31.0831 23.0656 31.0831 23.4242 31.0114C23.7828 30.9396 24.0696 30.8679 24.2848 30.8679H24.3565V35.5295Z" fill="white"/>
<path d="M34.8287 2.39648V35.6729H29.1631V2.39648H34.8287ZM31.3863 23.4811C31.458 23.1942 31.6014 22.8356 31.8166 22.4771C33.1792 19.1781 34.6852 16.2377 36.3347 13.6559C37.9842 11.0742 40.064 9.0661 42.5023 7.56006C44.9407 5.9823 47.7376 5.26514 50.9649 5.26514C53.3315 5.26514 55.483 5.91059 57.3476 7.20148C59.2122 8.49237 60.5748 10.2136 61.5789 12.3651C62.5829 14.5165 63.0849 16.9549 63.0849 19.6084C63.0849 22.1185 62.5829 24.4851 61.5789 26.78C60.5748 29.075 59.1405 30.9396 57.2042 32.3739C55.2678 33.8082 52.9729 34.5254 50.3194 34.5254C47.5942 34.5254 45.5144 33.5931 44.0801 31.8002C42.6458 30.0073 41.8569 27.7124 41.8569 24.9871C41.8569 21.8316 42.9326 18.7478 45.1558 15.664C47.379 12.5802 50.5346 10.1418 54.6224 8.13379C58.7819 6.26917 63.5152 5.26514 68.8222 5.26514C71.6909 5.26514 73.9858 5.69544 75.4918 6.55603C77.0696 7.41663 77.8585 8.77924 77.8585 10.6439C77.8585 12.0065 77.5716 13.2257 77.0696 14.4448C76.5676 15.664 75.7787 17.17 74.6312 19.0347L74.2727 19.7518C74.2009 19.8236 74.1292 19.8953 74.0575 19.967C74.0575 20.0387 73.9858 20.1821 73.9141 20.2539C72.9818 21.7599 72.3363 22.9791 71.906 23.6962C71.4757 24.4851 71.2606 25.1306 71.2606 25.7043C71.2606 25.9912 71.3323 26.2063 71.4757 26.4215C71.6192 26.6366 71.8343 26.78 72.1929 26.78C72.91 26.78 73.6272 26.4932 74.3444 25.9912C75.0615 25.4174 76.0656 24.5568 77.3565 23.4094C77.6433 23.1225 77.9302 22.8356 78.2888 22.5488C78.5756 22.2619 78.9342 21.975 79.2928 21.6165C80.8706 20.1821 82.5918 19.0347 84.3847 18.1024C86.2493 17.17 88.2574 16.5963 90.5523 16.3812V21.473C88.6877 21.6165 87.0382 22.1185 85.5321 22.8356C84.0978 23.5528 82.6635 24.6285 81.2292 25.8477C81.014 26.0629 80.7988 26.2063 80.5837 26.4215C80.3685 26.5649 80.1534 26.78 79.9383 26.9952C78.6474 28.1427 77.5716 29.0032 76.6393 29.7204C75.707 30.4376 74.7747 30.9396 73.6989 31.4416C72.6232 31.8719 71.4757 32.087 70.2565 32.087C68.7505 32.087 67.603 31.6568 66.7424 30.7962C65.8819 29.9356 65.4516 28.7881 65.4516 27.3538C65.4516 26.278 65.7384 25.0588 66.2404 23.6962C66.7424 22.4053 67.5313 20.8993 68.4636 19.2498L68.8939 18.5327C68.8939 18.4609 68.9657 18.3892 68.9657 18.3175C68.9657 18.2458 69.0374 18.1741 69.0374 18.1741C69.9697 16.5246 70.7586 15.2337 71.1889 14.3014C71.6909 13.3691 71.906 12.4368 71.906 11.7196C71.906 10.9307 71.5474 10.357 70.8303 10.0701C70.1131 9.78327 69.0374 9.63983 67.6748 9.63983C63.6586 9.63983 60.0011 10.4287 56.7739 12.0065C53.5466 13.5842 51.0366 15.5206 49.2437 17.8872C47.4508 20.2539 46.5184 22.6205 46.5184 24.9871C46.5184 26.3497 46.877 27.4972 47.5942 28.5012C48.3113 29.5053 49.2437 30.0073 50.4628 30.0073C51.8972 30.0073 53.0446 29.5053 54.0487 28.5012C55.0527 27.4972 55.8416 26.278 56.3436 24.7003C56.8456 23.1942 57.0607 21.5447 57.0607 19.8953C57.0607 18.0306 56.7022 16.3812 56.0567 14.8751C55.4113 13.3691 54.479 12.1499 53.3315 11.2893C52.184 10.4287 50.8214 9.99842 49.3154 9.99842C46.9487 9.99842 44.7255 10.859 42.574 12.6519C40.4226 14.4448 38.5579 16.668 36.9802 19.3933C35.4024 22.1185 34.1832 24.9154 33.3943 27.8558L30.6691 24.3417C31.1711 24.0548 31.2429 23.768 31.3863 23.4811ZM94.2098 2.4682V35.6729H88.5442V2.4682H94.2098Z" fill="#388EFF"/>
<path d="M103.532 34.741C101.883 33.737 100.592 32.231 99.5881 30.2946C98.584 28.3583 98.082 25.9916 98.082 23.2664C98.082 20.4695 98.584 18.1028 99.5881 16.1665C100.592 14.1585 101.883 12.6524 103.532 11.6484C105.182 10.6444 106.975 10.0706 108.983 10.0706C111.063 10.0706 112.784 10.5009 114.218 11.4332C115.653 12.3655 116.657 13.513 117.159 14.9473L117.876 14.7322C117.661 14.015 117.445 13.4413 117.374 12.8676C117.302 12.3655 117.23 11.7918 117.23 11.2181V10.7878V0.962646H122.896V35.6734H117.23V35.0996C117.23 35.0279 117.23 34.9562 117.23 34.8845C117.23 34.8128 117.23 34.741 117.23 34.6693C117.302 33.6653 117.517 32.6613 117.804 31.6572L117.159 31.4421C116.585 32.8764 115.581 33.9522 114.218 34.8845C112.784 35.7451 111.063 36.1754 108.983 36.1754C106.975 36.2471 105.11 35.7451 103.532 34.741ZM110.848 31.8724C112.282 31.8724 113.501 31.5138 114.505 30.7966C115.509 30.0795 116.298 29.0755 116.8 27.7846C117.302 26.4937 117.517 24.9876 117.517 23.2664C117.517 21.5452 117.302 20.0392 116.8 18.6766C116.298 17.314 115.581 16.3099 114.577 15.5928C113.573 14.8756 112.354 14.517 110.848 14.517H110.489C109.055 14.517 107.907 14.8756 106.903 15.5928C105.899 16.3099 105.182 17.314 104.68 18.6049C104.178 19.8958 103.963 21.4018 103.963 23.1947C103.963 25.8482 104.537 27.9997 105.612 29.5058C106.688 31.0835 108.337 31.8007 110.489 31.8007H110.848V31.8724Z" fill="white"/>
<path d="M146.059 11.6475C147.852 12.7232 149.286 14.2292 150.29 16.1656C151.295 18.1736 151.797 20.4686 151.797 23.1221V24.3413L133.007 24.413V24.5564C133.079 25.9907 133.437 27.2099 134.011 28.3574C134.585 29.5048 135.445 30.3654 136.449 30.9392C137.453 31.5846 138.672 31.8715 139.963 31.8715H140.178C141.756 31.8715 143.191 31.4412 144.41 30.4371C145.629 29.5048 146.346 28.3574 146.633 26.923H152.299C152.012 28.716 151.295 30.2937 150.147 31.728C149 33.1624 147.565 34.2381 145.772 35.027C143.979 35.8159 142.043 36.1744 139.82 36.1744C137.238 36.1744 135.015 35.6007 133.15 34.525C131.286 33.4492 129.78 31.9432 128.776 29.9351C127.772 27.9271 127.27 25.7039 127.27 23.1221C127.27 20.4686 127.772 18.1736 128.847 16.1656C129.923 14.2292 131.357 12.6515 133.222 11.5757C135.087 10.5 137.238 9.92627 139.676 9.92627C142.115 9.92627 144.266 10.5717 146.059 11.6475ZM146.059 20.3969C145.916 19.2494 145.629 18.2454 145.127 17.2413C144.625 16.2373 143.908 15.5201 143.047 15.0181C142.115 14.4444 141.111 14.2292 139.82 14.2292H139.39C137.597 14.2292 136.162 14.803 134.943 16.0222C133.724 17.2413 133.079 18.6757 132.935 20.3969H146.059Z" fill="white"/>
<path d="M161.192 29.6493C161.694 30.4382 162.34 31.0119 163.128 31.4422C163.989 31.8725 164.921 32.0877 165.925 32.0877C167.36 32.0877 168.507 31.8008 169.439 31.1553C170.372 30.5816 170.802 29.721 170.802 28.717C170.802 27.7847 170.443 27.1392 169.798 26.6372C169.153 26.1352 168.149 25.7049 166.858 25.418L161.909 24.2706C159.758 23.7686 158.18 22.9797 157.176 21.8322C156.172 20.6848 155.598 19.1787 155.598 17.3858C155.598 15.8798 156.028 14.5889 156.961 13.4414C157.893 12.2939 159.041 11.5051 160.618 10.8596C162.124 10.2859 163.917 9.99902 165.854 9.99902C167.718 9.99902 169.368 10.3576 170.945 11.0748C172.523 11.7919 173.814 12.796 174.818 14.0869C175.822 15.3777 176.324 16.9555 176.396 18.8201H170.659C170.587 17.7444 170.3 16.8838 169.798 16.1666C169.296 15.4495 168.651 14.9475 167.933 14.5889C167.216 14.2303 166.427 14.0869 165.567 14.0869C164.276 14.0869 163.2 14.3737 162.411 14.9475C161.622 15.5212 161.264 16.2383 161.264 17.1707C161.264 17.9595 161.479 18.605 161.981 19.107C162.483 19.609 163.2 19.9676 164.276 20.2545L169.296 21.4019C171.591 21.9039 173.312 22.6928 174.603 23.912C175.894 25.0595 176.539 26.6372 176.539 28.5736C176.539 30.223 176.109 31.5856 175.248 32.7331C174.388 33.8806 173.169 34.7412 171.591 35.3866C170.013 36.0321 168.077 36.3189 165.925 36.3189C163.559 36.3189 161.551 35.8886 159.901 35.0997C158.252 34.3109 156.961 33.1634 156.029 31.8008C155.168 30.3665 154.666 28.8604 154.522 27.0675H160.331C160.403 27.9998 160.69 28.9321 161.192 29.6493Z" fill="white"/>
<path d="M180.771 6.19782C180.125 5.55237 179.767 4.76349 179.767 3.83118C179.767 2.89887 180.125 2.1817 180.771 1.53626C181.416 0.890808 182.277 0.532227 183.209 0.532227C184.141 0.532227 184.858 0.890808 185.504 1.53626C186.149 2.1817 186.508 2.97058 186.508 3.83118C186.508 4.76349 186.149 5.55237 185.504 6.19782C184.858 6.84326 184.07 7.20185 183.209 7.20185C182.277 7.20185 181.416 6.84326 180.771 6.19782ZM185.934 10.6442V35.6732H180.34V10.6442H185.934Z" fill="white"/>
<path d="M197.337 40.4071C198.341 41.2677 199.704 41.698 201.497 41.698H201.783C203.648 41.698 205.226 41.196 206.373 40.192C207.592 39.1879 208.166 37.6819 208.166 35.6021C208.166 35.4587 208.166 35.387 208.166 35.2435C208.166 35.1001 208.166 35.0284 208.166 34.8132C208.238 33.8809 208.31 33.0203 208.381 32.3032C208.453 31.586 208.525 30.9406 208.596 30.3668L207.951 30.1517C207.377 31.5143 206.373 32.5183 205.011 33.3789C203.648 34.1678 201.999 34.5981 199.991 34.5981C197.911 34.5981 196.118 34.0961 194.54 33.0203C192.962 31.9446 191.815 30.5103 191.026 28.7174C190.237 26.8527 189.807 24.773 189.807 22.3346C189.807 19.968 190.237 17.8882 191.026 16.0236C191.815 14.1589 193.034 12.7246 194.54 11.7206C196.046 10.7166 197.911 10.1428 200.062 10.1428C201.497 10.1428 202.716 10.358 203.792 10.7166C204.796 11.1469 205.656 11.6489 206.373 12.2943C207.09 12.9398 207.592 13.6569 207.879 14.4458L208.596 14.2307V14.1589C208.31 13.4418 208.094 12.9398 208.023 12.5095C207.951 12.1509 207.879 11.6489 207.879 11.0034V10.6448H213.545V34.8132C213.545 38.5425 212.469 41.2677 210.318 43.2041C208.166 45.0687 205.226 46.001 201.425 46.001C197.48 46.001 194.612 45.1404 192.747 43.4192C190.883 41.698 189.807 39.4031 189.448 36.5344H195.329C195.759 38.2556 196.333 39.5465 197.337 40.4071ZM202.357 30.1517C203.72 30.1517 204.796 29.8648 205.728 29.2194C206.66 28.5739 207.306 27.7133 207.808 26.5659C208.31 25.4184 208.525 24.0558 208.525 22.478C208.525 20.0397 208.023 18.1033 206.947 16.669C205.871 15.2347 204.365 14.5175 202.357 14.5175H201.999C200.636 14.5175 199.489 14.8044 198.556 15.4498C197.624 16.0953 196.907 16.9559 196.405 18.1751C195.903 19.3225 195.688 20.7568 195.688 22.3346C195.688 24.7012 196.261 26.6376 197.337 28.0002C198.413 29.4345 199.991 30.08 202.07 30.08H202.357V30.1517Z" fill="white"/>
<path d="M224.375 10.6443V11.2897C224.375 11.8635 224.303 12.3655 224.231 12.7241C224.088 13.1544 223.944 13.6564 223.729 14.3735L224.446 14.517C224.877 13.2261 225.881 12.1503 227.387 11.2897C228.893 10.4291 230.614 10.0706 232.622 10.0706C234.2 10.0706 235.634 10.3574 236.925 10.8594C238.144 11.3615 239.22 12.2938 240.009 13.5129C240.798 14.8038 241.228 16.4533 241.228 18.5331V35.6733H235.634V19.5371C235.634 17.8876 235.132 16.6685 234.2 15.8796C233.267 15.0907 231.977 14.7321 230.255 14.7321H230.184C229.108 14.7321 228.104 14.9473 227.243 15.3776C226.311 15.8079 225.594 16.4533 225.092 17.2422C224.59 18.1028 224.303 19.0351 224.303 20.1108V35.6733H218.709V10.6443H224.375Z" fill="white"/>
</g>
<defs>
<clipPath id="clip0_76_1854">
<rect width="240.465" height="45.4682" fill="white" transform="translate(0.689453 0.531738)"/>
</clipPath>
</defs>
</svg>
