<svg width="714" height="574" viewBox="0 0 714 574" fill="none" xmlns="http://www.w3.org/2000/svg">
<path d="M468.215 178.654C459.885 163.103 448.777 150.885 436.559 140.333C411.012 118.673 381.577 105.9 349.365 98.6796C316.042 90.9044 282.164 89.2383 247.731 92.0151C224.961 94.2366 202.746 97.0135 180.531 102.012C178.864 102.567 176.643 103.123 174.421 103.678C174.977 105.9 174.977 107.566 175.532 109.787C183.863 135.89 187.195 162.548 185.529 189.761C182.752 235.858 172.755 279.732 151.651 320.83C135.545 353.042 115.551 381.922 89.4488 406.358C52.2386 441.347 8.91928 464.673 -41.6199 472.448C-68.8334 476.335 -95.4915 476.335 -122.15 469.116C-153.251 460.229 -178.798 443.013 -193.238 412.467C-200.458 396.917 -203.234 380.811 -204.345 364.149C-207.122 310.278 -191.016 261.96 -157.138 219.752C-127.148 182.541 -90.493 153.662 -50.506 128.115C-19.9603 108.676 12.2515 92.5705 46.1295 79.2415C48.9063 78.1307 51.6832 76.4646 55.5709 74.7985C47.7956 68.6893 40.5757 66.4678 32.8004 65.3571C-33.8447 52.028 -92.1592 69.8001 -141.588 115.896C-156.583 129.781 -169.356 144.776 -181.575 161.437C-182.686 163.103 -184.352 164.214 -186.018 166.991C-204.345 154.217 -222.117 141.999 -241 129.225C-234.335 120.895 -228.226 112.564 -221.562 105.344C-194.904 74.7985 -164.913 47.585 -128.814 28.7022C-101.045 13.7071 -71.0549 5.37646 -39.3984 2.59958C-20.5157 0.933454 -1.63287 -0.177315 17.2499 0.933437C56.1263 2.59957 92.2257 12.5963 123.327 37.0329C126.104 39.2544 128.325 40.9205 131.102 43.142C133.324 44.8081 135.545 47.0297 138.322 49.2512C140.543 49.2512 143.32 49.2512 146.097 48.6958C175.532 41.4759 204.967 35.9222 235.513 32.5899C296.049 26.4808 356.029 29.813 413.789 50.9173C447.666 63.1356 477.657 81.463 502.649 107.566C518.199 124.227 530.973 142.554 540.414 163.103C541.525 165.88 543.191 168.657 545.413 172.545C550.411 172.545 555.965 172.545 560.963 172.545C582.623 173.1 603.727 175.322 624.831 181.431C674.815 195.87 702.029 229.748 710.915 279.732C717.579 319.164 710.359 357.485 697.03 394.695C679.258 444.124 654.266 489.664 620.388 530.207C612.613 539.648 603.727 547.979 595.952 556.865C587.621 554.088 554.299 530.207 539.859 517.433C545.968 510.769 551.522 504.104 557.631 497.44C585.4 465.783 608.725 431.35 624.831 393.029C633.162 374.146 639.827 354.708 642.048 334.159C643.159 321.386 643.714 308.056 641.493 295.283C635.384 260.85 614.279 241.411 579.846 236.413C573.737 235.302 567.628 235.302 561.519 234.747C558.742 241.411 559.852 247.52 559.852 253.074C560.963 287.508 557.076 321.385 548.189 354.708C535.416 401.915 515.422 446.345 483.766 483.555C448.222 525.209 405.458 555.754 351.031 567.417C313.821 575.192 276.055 576.858 238.845 566.306C213.298 559.086 191.083 546.313 173.866 525.209C161.092 509.103 152.762 490.775 150.54 470.226C143.876 412.467 162.203 363.039 199.969 320.275C243.843 270.291 298.27 236.413 359.362 212.532C392.684 199.758 426.562 189.761 461.551 183.097C462.106 180.875 464.883 179.765 468.215 178.654ZM487.654 239.745C484.321 239.745 482.1 239.745 479.878 240.301C401.57 256.962 328.816 284.731 267.725 338.602C244.954 358.596 227.737 381.922 219.407 411.912C215.519 426.907 213.853 442.457 217.185 457.453C222.739 481.889 238.29 497.995 262.171 506.326C277.721 511.88 293.827 511.324 309.378 510.213C349.365 506.326 382.687 489.664 411.012 461.34C439.891 432.461 459.329 398.027 472.658 359.706C485.432 323.607 490.43 286.397 488.764 248.076C488.764 244.744 488.209 243.077 487.654 239.745ZM102.222 124.227C98.3348 125.338 95.558 125.893 93.3365 126.448C43.908 143.665 -2.74362 166.991 -44.3968 198.647C-63.835 213.087 -82.7178 229.193 -97.713 248.631C-123.816 281.954 -137.7 319.164 -134.923 361.928C-133.257 388.586 -112.708 410.246 -87.7162 412.467C-53.2829 415.244 -21.6264 406.913 7.25314 388.586C48.351 361.928 76.1198 324.718 95.0026 280.288C106.11 254.185 112.219 226.416 114.441 198.092C116.107 176.988 114.996 155.883 107.221 135.334C104.999 131.447 103.889 128.115 102.222 124.227Z" fill="#BFFDE8"/>
</svg>
