<svg width="258" height="244" viewBox="0 0 258 244" fill="none" xmlns="http://www.w3.org/2000/svg">
<path d="M814.409 229.994C804.843 209.92 792.088 194.147 778.057 180.526C748.721 152.566 714.92 136.076 677.93 126.756C639.665 116.719 600.762 114.569 561.222 118.153C535.074 121.021 509.564 124.606 484.054 131.058C482.141 131.775 479.59 132.492 477.039 133.209C477.676 136.076 477.676 138.227 478.314 141.095C487.88 174.79 491.707 209.203 489.794 244.332C486.605 303.837 475.125 360.475 450.891 413.527C432.396 455.109 409.437 492.389 379.462 523.934C336.733 569.1 286.988 599.211 228.953 609.248C197.703 614.267 167.091 614.267 136.479 604.947C100.765 593.476 71.4282 571.251 54.8467 531.82C46.5559 511.746 43.3671 490.955 42.0916 469.448C38.9029 399.906 57.3977 337.533 96.3006 283.046C130.739 235.012 172.831 197.732 218.749 164.754C253.825 139.661 290.815 118.87 329.718 101.664C332.907 100.23 336.095 98.0793 340.56 95.9285C331.631 88.0423 323.34 85.1746 314.412 83.7407C237.882 66.5345 170.918 89.4762 114.158 148.981C96.9383 166.904 82.27 186.261 68.2395 207.769C66.964 209.92 65.0507 211.354 63.1375 214.938C42.0916 198.449 21.6836 182.677 0 166.187C7.65303 155.433 14.6683 144.68 22.3213 135.359C52.9334 95.9285 87.372 60.799 128.826 36.4235C160.714 17.0665 195.152 6.31261 231.504 2.72797C253.188 0.577188 274.871 -0.856688 296.555 0.577166C341.197 2.72795 382.651 15.6326 418.365 47.1774C421.554 50.0451 424.105 52.1959 427.294 55.0636C429.845 57.2144 432.396 60.0822 435.585 62.9499C438.136 62.9499 441.324 62.9498 444.513 62.2329C478.314 52.9128 512.115 45.7436 547.191 41.442C616.706 33.5558 685.583 37.8574 751.91 65.1006C790.813 80.873 825.251 104.532 853.95 138.227C871.807 159.735 886.475 183.394 897.317 209.92C898.593 213.505 900.506 217.089 903.057 222.108C908.797 222.108 915.174 222.108 920.914 222.108C945.786 222.825 970.021 225.692 994.255 233.579C1051.65 252.219 1082.9 295.951 1093.11 360.475C1100.76 411.376 1092.47 460.844 1077.16 508.879C1056.76 572.685 1028.06 631.473 989.153 683.809C980.225 695.997 970.021 706.75 961.092 718.221C951.526 714.637 913.261 683.809 896.679 667.32C903.695 658.716 910.072 650.113 917.087 641.51C948.975 600.645 975.761 556.196 994.255 506.728C1003.82 482.352 1011.47 457.26 1014.03 430.734C1015.3 414.244 1015.94 397.038 1013.39 380.549C1006.37 336.099 982.138 311.007 942.597 304.554C935.582 303.12 928.567 303.12 921.552 302.404C918.363 311.007 919.638 318.893 919.638 326.062C920.914 370.512 916.45 414.244 906.246 457.26C891.577 518.199 868.618 575.553 832.266 623.587C791.45 677.356 742.343 716.787 679.844 731.843C637.114 741.88 593.747 744.031 551.018 730.409C521.681 721.089 496.171 704.6 476.401 677.356C461.733 656.566 452.166 632.907 449.615 606.381C441.962 531.82 463.008 468.014 506.375 412.81C556.758 348.287 619.257 304.554 689.41 273.726C727.675 257.237 766.578 244.332 806.756 235.729C807.394 232.862 810.583 231.428 814.409 229.994ZM836.731 308.856C832.904 308.856 830.353 308.856 827.802 309.573C737.879 331.081 654.334 366.927 584.181 436.469C558.033 462.278 538.263 492.389 528.696 531.103C524.232 550.46 522.319 570.534 526.145 589.891C532.523 621.436 550.38 642.227 577.803 652.981C595.66 660.15 614.155 659.433 632.012 657.999C677.93 652.981 716.196 631.473 748.721 594.91C781.884 557.63 804.205 513.18 819.511 463.712C834.18 417.112 839.919 369.078 838.006 319.61C838.006 315.308 837.368 313.157 836.731 308.856ZM394.131 159.735C389.667 161.169 386.478 161.886 383.927 162.603C327.167 184.827 273.596 214.938 225.764 255.803C203.443 274.443 181.759 295.234 164.54 320.327C134.566 363.342 118.622 411.376 121.811 466.58C123.724 500.992 147.321 528.953 176.02 531.82C215.56 535.405 251.912 524.651 285.075 500.992C332.269 466.58 364.156 418.546 385.84 361.191C398.595 327.496 405.61 291.65 408.161 255.086C410.075 227.843 408.799 200.6 399.871 174.074C397.32 169.055 396.044 164.754 394.131 159.735Z" fill="#90B9FA" fill-opacity="0.33"/>
</svg>
