<svg width="591" height="510" viewBox="0 0 591 510" fill="none" xmlns="http://www.w3.org/2000/svg">
<path d="M-5.81116e-06 621.261L590.238 621.261L590.238 717L0 717L-5.81116e-06 621.261ZM373.183 679.568C367.852 678.129 361.759 675.249 355.666 673.09C296.262 650.775 244.473 625.58 199.539 596.786C154.604 567.993 118.048 533.44 90.6301 492.409C63.2126 451.378 49.5039 404.589 49.5038 350.601C49.5038 310.289 60.9278 275.017 83.7758 244.064C106.624 213.111 137.088 189.356 175.929 172.8C214.771 155.523 257.42 147.605 304.639 147.605C348.812 147.605 391.461 155.523 432.588 172.08C473.714 188.636 506.463 213.111 532.357 246.223C558.251 278.616 571.198 317.488 571.198 361.398C571.198 406.748 555.205 442.02 522.456 466.495C490.469 490.97 450.104 503.207 401.362 503.207C345.004 503.207 290.169 484.491 236.095 447.779C182.022 411.067 137.088 357.799 102.816 287.974C68.5438 218.87 51.027 138.967 51.027 49.7067C51.027 0.757506 58.643 -36.6743 73.875 -62.5886C89.1069 -89.2227 113.478 -102.18 146.988 -102.18C170.598 -102.18 193.446 -97.8608 214.771 -89.2227C236.095 -80.5846 263.513 -66.9076 296.262 -48.1917L308.447 -42.433C309.97 -40.9934 311.494 -39.5537 313.017 -38.8338C314.54 -38.114 316.825 -37.3941 318.348 -35.9544C345.765 -20.1179 366.329 -9.32032 380.037 -2.1219C393.746 5.07653 405.932 8.67571 415.071 8.67571C419.64 8.67571 424.21 7.23607 428.018 5.07652C431.826 2.19713 434.111 -1.40205 434.111 -7.16078C434.111 -18.6782 429.541 -30.9155 419.64 -43.1528C409.74 -55.3901 394.508 -71.9465 373.945 -93.5418C368.613 -98.5806 363.282 -103.62 358.713 -109.378C354.143 -115.137 348.812 -120.176 342.719 -125.935C317.586 -152.569 297.023 -180.643 280.268 -211.596C263.513 -242.549 253.612 -277.101 249.804 -315.973L340.434 -315.973C343.481 -284.3 351.858 -256.946 364.805 -231.751C378.514 -207.277 396.031 -182.802 418.879 -159.767C422.687 -156.168 425.733 -153.289 428.78 -148.97C431.826 -145.37 434.872 -141.771 438.68 -138.172C458.482 -116.577 475.237 -97.8609 487.423 -82.7442C499.608 -67.6275 509.509 -51.0711 517.887 -33.0751C525.503 -15.079 530.072 4.35673 530.072 24.5123C530.072 49.7067 522.456 69.8623 506.463 84.2591C490.469 98.6559 470.668 105.854 445.535 105.854C425.733 105.854 404.409 101.535 380.799 92.1774C357.189 83.5393 331.295 70.5821 302.354 54.7456L289.407 46.8274C287.884 46.1075 287.122 45.3877 285.599 45.3877C284.076 44.6678 283.314 43.948 283.314 43.948C254.374 28.1114 231.526 15.8742 214.009 7.23608C196.492 -1.40204 181.26 -5.00123 167.552 -5.00123C153.081 -5.00123 143.942 0.757503 138.611 12.9948C133.28 25.2321 130.995 42.5083 130.995 66.2631C130.995 133.928 144.704 195.115 172.883 249.103C201.062 303.091 235.334 345.562 277.222 375.795C319.11 406.028 360.997 421.145 402.885 421.145C427.256 421.145 447.82 415.386 465.336 403.869C482.853 392.351 491.231 375.795 491.231 356.359C491.231 332.605 482.853 312.449 465.336 295.893C447.82 278.616 425.733 266.379 398.316 257.741C370.898 249.103 342.719 245.504 313.017 245.504C280.268 245.504 250.566 251.262 223.148 262.06C195.731 272.858 174.406 287.974 159.936 307.41C144.704 326.846 137.088 349.161 137.088 375.075C137.088 414.666 153.081 452.818 184.307 488.09C215.532 524.082 255.135 555.036 303.878 581.67C351.858 608.304 402.124 628.459 454.674 642.136L392.223 687.486C384.607 683.167 379.276 681.008 373.183 679.568ZM0.761532 -375L591 -375L591 -279.261L0.761538 -279.261L0.761532 -375Z" fill="#388EFF" fill-opacity="0.19"/>
</svg>
