<svg width="930" height="663" viewBox="0 0 930 663" fill="none" xmlns="http://www.w3.org/2000/svg">
<path d="M243.38 396.105C248.543 411.501 256.652 424.27 265.986 435.686C285.561 459.186 309.865 475.164 337.434 486.491C365.909 498.488 395.756 505.001 426.735 507.549C447.276 508.882 467.403 509.628 487.85 508.349C489.41 508.089 491.463 507.911 493.515 507.732C493.341 505.626 493.581 504.108 493.407 502.003C489.76 476.993 490.632 452.214 496.023 427.666C505.115 386.079 520.298 347.58 544.947 313.249C563.88 286.276 585.787 262.913 612.48 244.498C650.554 218.108 692.378 203.243 738.378 203.612C763.104 204.082 786.779 208.013 809.415 218.521C835.758 231.203 855.972 250.655 864.405 280.614C868.582 295.846 868.733 310.929 867.325 326.272C862.048 375.763 840.801 417.409 804.648 450.869C772.666 480.348 735.963 501.254 696.78 518.634C666.859 531.839 635.938 541.764 603.936 548.912C601.31 549.515 598.605 550.623 594.913 551.568C600.94 558.28 607.032 561.369 613.778 563.527C671.048 585.497 725.39 577.904 775.911 543.195C791.224 532.757 804.723 520.978 817.968 507.6C819.194 506.246 820.833 505.48 822.712 503.196C837.152 517.536 851.179 531.288 866.112 545.71C858.997 552.317 852.374 559.006 845.418 564.601C817.353 588.5 786.808 608.871 752.035 620.752C725.219 630.319 697.388 633.487 668.876 631.349C651.867 630.083 634.938 628.311 618.328 624.514C584.043 617.264 553.42 602.834 529.313 575.984C527.166 573.551 525.432 571.706 523.286 569.272C521.552 567.427 519.899 565.075 517.752 562.642C515.779 562.314 513.313 561.905 510.767 562.001C483.589 564.239 456.65 564.959 429.044 563.491C374.406 560.131 321.617 548.251 273.356 520.507C245.026 504.38 221.027 483.26 202.584 455.794C191.168 438.322 182.458 419.741 177.027 399.627C176.44 396.933 175.359 394.158 173.945 390.288C169.506 389.551 164.574 388.732 160.135 387.995C140.979 384.296 122.557 379.16 104.692 370.482C62.3783 349.957 43.0799 315.079 42.3724 268.23C42.1212 231.322 54.0407 197.473 71.2259 165.538C94.113 123.125 122.853 85.3194 158.766 53.3775C167.028 45.9222 176.117 39.6426 184.299 32.6932C191.298 36.4515 217.459 63.1222 228.447 76.889C222.063 82.0601 216.173 87.3131 209.79 92.4842C180.58 117.231 154.915 145.163 135.105 177.701C124.992 193.676 116.28 210.403 111.354 228.797C108.531 240.271 106.122 252.333 106.259 264.298C106.736 296.57 122.684 317.392 152.545 327.023C157.811 328.935 163.236 329.836 168.582 331.243C172.006 325.58 171.897 319.851 172.696 314.791C176.658 283.256 184.98 252.964 197.661 223.915C215.789 182.789 239.931 145.259 273.392 116.025C310.945 83.3169 353.313 61.793 403.324 59.1924C437.487 57.5951 471.265 61.6456 502.794 76.7459C524.444 87.0906 542.337 102.004 554.593 123.77C563.622 140.327 568.387 158.253 567.406 177.302C565.023 230.907 541.643 273.238 501.958 306.63C455.81 345.7 402.606 368.54 344.92 381.29C313.491 388.014 281.968 392.127 249.937 393.04C249.125 394.982 246.499 395.584 243.38 396.105ZM234.898 337.58C237.857 338.071 239.83 338.399 241.883 338.221C313.821 334.587 382.423 320.015 444.42 279.942C467.515 265.084 486.157 246.371 497.866 220.276C503.474 207.188 507.188 193.266 506.384 179.113C504.964 156.031 493.469 139.064 473.458 127.953C460.446 120.6 446.063 118.732 432.093 117.451C396.023 115.097 364.036 125.363 334.811 146.992C305.013 169.045 282.801 197.55 265.456 230.498C248.924 261.504 239.137 294.668 235.109 329.827C234.63 332.862 234.884 334.462 234.898 337.58ZM560.587 499.656C564.199 499.217 566.745 499.121 568.797 498.943C615.168 490.545 659.951 476.172 701.492 453.473C720.83 443.183 739.914 431.294 756.025 415.795C783.995 389.285 801.673 357.431 805.354 318.06C807.705 293.527 792.57 270.764 770.694 265.055C740.514 257.448 711.203 260.37 682.922 272.809C642.592 291.037 612.584 320.844 589.428 358.538C575.813 380.682 566.396 405.081 560.352 430.558C555.839 449.54 553.793 468.932 557.744 488.8C559.158 492.669 559.666 495.869 560.587 499.656Z" fill="#388EFF"/>
</svg>
