<svg width="850" height="242" viewBox="0 0 850 242" fill="none" xmlns="http://www.w3.org/2000/svg">
<path d="M564.335 224.72C554.276 205.107 540.865 189.696 526.112 176.386C495.265 149.067 459.724 132.956 420.83 123.85C380.595 114.043 339.69 111.942 298.114 115.444C270.62 118.246 243.796 121.748 216.973 128.053C214.961 128.753 212.279 129.454 209.596 130.154C210.267 132.956 210.267 135.058 210.938 137.86C220.996 170.783 225.02 204.406 223.008 238.73C219.655 296.871 207.585 352.209 182.103 404.045C162.656 444.674 138.515 481.099 106.997 511.92C62.0681 556.051 9.7626 585.472 -51.2605 595.279C-84.1191 600.182 -116.307 600.182 -148.495 591.076C-186.048 579.868 -216.895 558.153 -234.33 519.626C-243.047 500.012 -246.4 479.698 -247.741 458.683C-251.094 390.736 -231.647 329.793 -190.742 276.556C-154.53 229.624 -110.272 193.198 -61.9898 160.976C-25.1077 136.459 13.7861 116.144 54.6917 99.3328C58.0446 97.9318 61.3975 95.8304 66.0916 93.7289C56.7035 86.0235 47.9859 83.2215 38.5977 81.8206C-41.8723 65.0088 -112.284 87.4245 -171.966 145.565C-190.071 163.077 -205.495 181.99 -220.248 203.005C-221.589 205.107 -223.6 206.508 -225.612 210.01C-247.741 193.899 -269.2 178.488 -292 162.377C-283.953 151.869 -276.577 141.362 -268.53 132.256C-236.342 93.7289 -200.13 59.4049 -156.542 35.5883C-123.013 16.6752 -86.8014 6.16786 -48.5782 2.66542C-25.7783 0.563953 -2.97849 -0.837045 19.8214 0.563932C66.7622 2.6654 110.35 15.2742 147.903 46.0957C151.256 48.8976 153.938 50.9991 157.291 53.801C159.973 55.9025 162.656 58.7045 166.009 61.5064C168.691 61.5064 172.044 61.5064 175.397 60.8059C210.938 51.6996 246.479 44.6947 283.361 40.4918C356.454 32.7864 428.877 36.9893 498.618 63.6079C539.524 79.0186 575.735 102.135 605.911 135.058C624.688 156.072 640.111 179.188 651.511 205.107C652.852 208.609 654.864 212.111 657.546 217.015C663.581 217.015 670.287 217.015 676.323 217.015C702.475 217.715 727.958 220.517 753.44 228.223C813.792 246.435 846.651 289.165 857.38 352.209C865.427 401.944 856.71 450.277 840.616 497.21C819.157 559.554 788.981 616.994 748.075 668.129C738.687 680.038 727.958 690.545 718.569 701.753C708.511 698.25 668.276 668.129 650.84 652.018C658.217 643.612 664.923 635.206 672.299 626.801C705.828 586.873 733.993 543.442 753.44 495.109C763.498 471.292 771.546 446.775 774.228 420.857C775.569 404.746 776.24 387.934 773.557 371.823C766.181 328.393 740.699 303.875 699.122 297.571C691.746 296.17 684.37 296.17 676.993 295.47C673.64 303.875 674.981 311.581 674.981 318.586C676.323 362.016 671.628 404.746 660.899 446.775C645.476 506.317 621.335 562.356 583.112 609.288C540.194 661.825 488.559 700.352 422.842 715.062C377.913 724.869 332.313 726.97 287.384 713.661C256.537 704.555 229.714 688.443 208.926 661.825C193.503 641.511 183.444 618.395 180.761 592.477C172.714 519.626 194.844 457.282 240.443 403.345C293.419 340.301 359.137 297.571 432.901 267.45C473.136 251.339 514.041 238.73 556.288 230.324C556.959 227.522 560.312 226.121 564.335 224.72ZM587.806 301.774C583.782 301.774 581.1 301.774 578.417 302.474C483.865 323.489 396.019 358.513 322.255 426.461C294.761 451.678 273.973 481.099 263.914 518.925C259.22 537.839 257.208 557.452 261.231 576.365C267.937 607.187 286.714 627.501 315.549 638.008C334.325 645.013 353.772 644.313 372.548 642.912C420.83 638.008 461.065 616.994 495.265 581.269C530.135 544.843 553.606 501.413 569.7 453.079C585.123 407.548 591.158 360.615 589.147 312.281C589.147 308.078 588.476 305.977 587.806 301.774ZM122.421 156.072C117.727 157.473 114.374 158.174 111.691 158.874C52.0094 180.589 -4.31964 210.01 -54.6134 249.938C-78.0838 268.15 -100.884 288.465 -118.989 312.982C-150.507 355.011 -167.271 401.944 -163.919 455.881C-161.907 489.505 -137.095 516.824 -106.919 519.626C-65.3428 523.128 -27.1195 512.621 7.75085 489.505C57.374 455.881 90.9032 408.949 113.703 352.91C127.115 319.987 134.491 284.962 137.173 249.237C139.185 222.619 137.844 196 128.456 170.082C125.774 165.179 124.432 160.976 122.421 156.072Z" fill="#BFFDE8" fill-opacity="0.36"/>
</svg>
