<svg width="1555" height="466" viewBox="0 0 1555 466" fill="none" xmlns="http://www.w3.org/2000/svg">
<mask id="mask0_76_1827" style="mask-type:alpha" maskUnits="userSpaceOnUse" x="0" y="0" width="1555" height="466">
<rect width="1555" height="466" rx="40" fill="#E3EBF6"/>
</mask>
<g mask="url(#mask0_76_1827)">
<path d="M1279.69 -47.749C1269.7 -66.7107 1256.37 -81.6093 1241.71 -94.4762C1211.06 -120.887 1175.75 -136.463 1137.1 -145.267C1097.12 -154.748 1056.47 -156.779 1015.16 -153.393C987.843 -150.684 961.19 -147.298 934.537 -141.203C932.538 -140.526 929.873 -139.849 927.207 -139.172C927.874 -136.463 927.874 -134.431 928.54 -131.723C938.535 -99.8939 942.533 -67.3879 940.534 -34.2049C937.202 22.0032 925.208 75.5023 899.888 125.616C880.564 164.893 856.577 200.108 825.259 229.905C780.615 272.569 728.642 301.012 668.006 310.493C635.356 315.233 603.372 315.233 571.388 306.429C534.074 295.594 503.423 274.601 486.098 237.354C477.436 218.393 474.104 198.754 472.772 178.438C469.44 112.749 488.763 53.8318 529.409 2.3642C565.391 -43.0086 609.369 -78.2233 657.344 -109.375C693.993 -133.077 732.64 -152.716 773.286 -168.969C776.617 -170.323 779.949 -172.355 784.613 -174.386C775.285 -181.836 766.622 -184.545 757.294 -185.899C677.334 -202.152 607.37 -180.481 548.067 -124.273C530.076 -107.343 514.75 -89.0586 500.091 -68.7424C498.758 -66.7108 496.759 -65.3564 494.76 -61.9703C472.772 -77.5461 451.449 -92.4446 428.794 -108.02C436.79 -118.178 444.119 -128.336 452.115 -137.14C484.099 -174.386 520.081 -207.57 563.392 -230.595C596.709 -248.879 632.69 -259.037 670.671 -262.423C693.326 -264.455 715.981 -265.809 738.636 -264.455C785.279 -262.423 828.591 -250.233 865.905 -220.436C869.237 -217.728 871.902 -215.696 875.234 -212.987C877.899 -210.956 880.564 -208.247 883.896 -205.538C886.561 -205.538 889.893 -205.538 893.225 -206.215C928.54 -215.019 963.855 -221.791 1000.5 -225.854C1073.13 -233.303 1145.1 -229.24 1214.39 -203.506C1255.04 -188.608 1291.02 -166.26 1321.01 -134.431C1339.66 -114.115 1354.99 -91.7674 1366.32 -66.7108C1367.65 -63.3247 1369.65 -59.9387 1372.31 -55.1983C1378.31 -55.1983 1384.97 -55.1983 1390.97 -55.1983C1416.96 -54.5211 1442.28 -51.8122 1467.6 -44.363C1527.57 -26.7556 1560.22 14.5539 1570.88 75.5024C1578.88 123.584 1570.21 170.311 1554.22 215.684C1532.9 275.955 1502.91 331.486 1462.27 380.922C1452.94 392.435 1442.28 402.593 1432.95 413.428C1422.96 410.042 1382.98 380.922 1365.65 365.346C1372.98 357.22 1379.64 349.093 1386.97 340.967C1420.29 302.366 1448.28 260.38 1467.6 213.652C1477.59 190.627 1485.59 166.925 1488.26 141.869C1489.59 126.293 1490.25 110.04 1487.59 94.4642C1480.26 52.4774 1454.94 28.7752 1413.63 22.6804C1406.3 21.326 1398.97 21.3259 1391.64 20.6487C1388.31 28.7752 1389.64 36.2245 1389.64 42.9965C1390.97 84.9833 1386.31 126.293 1375.65 166.925C1360.32 224.488 1336.33 278.664 1298.35 324.037C1255.71 374.827 1204.4 412.074 1139.1 426.295C1094.46 435.776 1049.15 437.807 1004.5 424.94C973.85 416.137 947.197 400.561 926.541 374.827C911.216 355.188 901.221 332.841 898.555 307.784C890.559 237.355 912.548 177.083 957.858 124.938C1010.5 63.9899 1075.8 22.6803 1149.09 -6.43951C1189.07 -22.0152 1229.72 -34.205 1271.7 -42.3314C1272.37 -45.0402 1275.7 -46.3946 1279.69 -47.749ZM1303.02 26.7436C1299.02 26.7436 1296.35 26.7436 1293.69 27.4208C1199.74 47.7369 1112.45 81.5972 1039.15 147.286C1011.83 171.666 991.175 200.108 981.18 236.677C976.516 254.962 974.517 273.924 978.515 292.208C985.178 322.005 1003.84 341.644 1032.49 351.802C1051.14 358.574 1070.47 357.897 1089.12 356.543C1137.1 351.802 1177.08 331.486 1211.06 296.949C1245.71 261.734 1269.03 219.747 1285.03 173.02C1300.35 129.002 1306.35 83.6289 1304.35 36.9017C1304.35 32.8385 1303.68 30.8069 1303.02 26.7436ZM840.585 -114.115C835.92 -112.761 832.589 -112.084 829.923 -111.406C770.62 -90.413 714.649 -61.9704 664.674 -23.3696C641.353 -5.7623 618.697 13.8766 600.707 37.5789C569.389 78.2112 552.731 123.584 556.063 175.729C558.062 208.235 582.716 234.646 612.7 237.354C654.013 240.741 691.994 230.582 726.643 208.235C775.951 175.729 809.267 130.356 831.922 76.1796C845.249 44.3509 852.579 10.4907 855.244 -24.0468C857.243 -49.7806 855.91 -75.5144 846.582 -100.571C843.916 -105.311 842.584 -109.375 840.585 -114.115Z" fill="white" fill-opacity="0.4"/>
</g>
</svg>
