<svg width="589" height="225" viewBox="0 0 589 225" fill="none" xmlns="http://www.w3.org/2000/svg">
<path d="M-15.8954 0.437256V385.054H-81.8633V0.437256H-15.8954ZM-56.0713 243.615C-55.0793 240.141 -53.0953 236.17 -51.6073 232.2C-36.2314 193.49 -18.8714 159.743 0.968575 130.463C20.8085 101.182 44.6165 77.3607 72.8884 59.4946C101.16 41.6285 133.4 32.6955 170.6 32.6955C198.376 32.6955 222.68 40.1397 244.008 55.0281C265.336 69.9165 281.704 89.7677 293.112 115.078C305.016 140.388 310.472 168.18 310.472 198.949C310.472 227.734 305.016 255.525 293.608 282.324C282.2 309.124 265.336 330.464 242.52 347.337C220.2 364.211 193.416 372.647 163.16 372.647C131.912 372.647 107.608 362.226 90.7444 340.886C73.8804 320.042 65.4484 293.739 65.4484 261.977C65.4484 225.252 78.3444 189.52 103.64 154.284C128.936 119.048 165.64 89.7677 213.752 67.4351C261.368 45.1025 316.424 33.688 377.928 33.688C411.656 33.688 437.448 38.6508 455.304 48.5764C473.656 58.502 482.584 74.383 482.584 96.2193C482.584 111.604 479.608 126.492 473.656 140.388C467.704 154.284 458.28 172.15 445.384 193.49L441.416 201.431C440.424 202.423 439.432 203.416 438.936 204.408C438.44 205.401 437.944 206.89 436.952 207.882C426.04 225.748 418.6 239.148 413.64 248.081C408.68 257.014 406.2 264.955 406.2 270.91C406.2 273.888 407.192 276.865 408.68 279.347C410.664 281.828 413.144 283.317 417.112 283.317C425.048 283.317 433.48 280.339 441.912 273.888C450.344 267.436 461.752 257.51 476.632 244.111C480.104 240.637 483.576 237.163 487.544 234.185C491.512 231.208 494.984 227.734 498.952 223.763C517.304 207.386 536.648 193.987 557.976 183.068C579.304 172.15 603.111 165.699 629.895 163.217V222.275C608.071 224.26 589.224 229.719 571.864 238.156C555 247.089 538.136 258.503 522.264 273.391C519.784 275.873 517.8 277.858 514.824 279.843C512.344 281.828 509.864 283.813 507.384 286.295C492.504 299.198 479.608 310.116 469.192 318.057C458.776 325.997 447.368 332.449 434.968 337.908C422.568 342.871 409.176 345.848 395.288 345.848C377.928 345.848 364.04 340.886 354.12 330.464C344.2 320.042 339.24 307.138 339.24 290.761C339.24 277.858 342.216 263.962 348.664 248.577C354.616 233.193 363.544 216.319 374.456 197.461L379.912 189.024C380.408 188.031 380.904 187.535 380.904 186.542C381.4 185.55 381.896 185.054 381.896 185.054C392.808 166.195 401.24 151.306 407.192 139.892C413.144 128.478 415.624 118.552 415.624 109.619C415.624 100.19 411.656 94.2342 403.224 90.7603C394.792 87.2863 382.888 85.7975 366.52 85.7975C319.896 85.7975 277.736 94.7305 240.536 113.093C203.336 131.455 174.072 153.788 153.24 181.083C132.408 208.379 121.992 235.674 121.992 262.97C121.992 278.85 125.96 292.25 133.896 303.664C141.832 315.079 153.24 320.538 166.632 320.538C183 320.538 196.888 315.079 208.296 303.664C220.2 292.25 228.632 277.858 234.584 259.992C240.536 242.126 243.016 223.763 243.016 204.408C243.016 183.068 239.048 163.713 231.608 145.847C224.168 127.981 213.752 114.085 200.36 104.656C186.968 94.7305 171.592 89.7677 153.736 89.7677C126.456 89.7677 100.168 100.19 75.8644 120.537C51.0645 140.885 29.7365 166.691 11.3846 198.453C-6.96741 229.719 -20.8554 262.473 -30.2794 296.717L-61.5273 256.022C-58.5513 251.059 -57.0633 247.585 -56.0713 243.615ZM670.567 0.933536V385.551H604.599V0.933536H670.567Z" fill="#BFFDE8"/>
</svg>
