<svg width="1146" height="699" viewBox="0 0 1146 699" fill="none" xmlns="http://www.w3.org/2000/svg">
<path d="M850.901 217.251C840.906 198.289 827.579 183.391 812.92 170.524C782.269 144.113 746.954 128.537 708.307 119.733C668.327 110.252 627.681 108.221 586.369 111.607C559.049 114.316 532.396 117.702 505.743 123.797C503.744 124.474 501.079 125.151 498.413 125.828C499.08 128.537 499.08 130.569 499.746 133.277C509.741 165.106 513.739 197.612 511.74 230.795C508.408 287.003 496.414 340.502 471.094 390.616C451.77 429.893 427.783 465.108 396.465 494.905C351.821 537.569 299.848 566.012 239.212 575.493C206.562 580.233 174.578 580.233 142.594 571.429C105.28 560.594 74.6287 539.601 57.3042 502.354C48.6419 483.393 45.3103 463.754 43.9776 443.438C40.646 377.749 59.9695 318.832 100.616 267.364C136.597 221.991 180.575 186.777 228.551 155.625C265.199 131.923 303.846 112.284 344.492 96.0312C347.823 94.6768 351.155 92.6452 355.819 90.6135C346.491 83.1643 337.828 80.4554 328.5 79.101C248.54 62.8481 178.576 84.5187 119.273 140.727C101.282 157.657 85.9563 175.941 71.2971 196.258C69.9644 198.289 67.9655 199.644 65.9665 203.03C43.9777 187.454 22.6552 172.555 0 156.98C7.99594 146.822 15.3255 136.664 23.3215 127.86C55.3052 90.6135 91.2869 57.4305 134.598 34.4055C167.915 16.1209 203.896 5.96285 241.877 2.57683C264.532 0.545209 287.187 -0.809223 309.843 0.545188C356.486 2.5768 399.797 14.7665 437.111 44.5635C440.443 47.2724 443.108 49.304 446.44 52.0128C449.105 54.0444 451.77 56.7533 455.102 59.4621C457.767 59.4621 461.099 59.4621 464.431 58.7849C499.746 49.9812 535.061 43.2092 571.709 39.1459C644.339 31.6967 716.303 35.7599 785.601 61.4937C826.247 76.3922 862.228 98.74 892.213 130.569C910.87 150.885 926.196 173.233 937.524 198.289C938.856 201.675 940.855 205.061 943.52 209.802C949.517 209.802 956.181 209.802 962.178 209.802C988.164 210.479 1013.48 213.188 1038.81 220.637C1098.77 238.244 1131.42 279.554 1142.09 340.502C1150.08 388.584 1141.42 435.311 1125.43 480.684C1104.11 540.955 1074.12 596.486 1033.47 645.922C1024.15 657.435 1013.48 667.593 1004.16 678.428C994.161 675.042 954.182 645.922 936.857 630.346C944.187 622.22 950.85 614.093 958.18 605.967C991.496 567.366 1019.48 525.38 1038.81 478.652C1048.8 455.627 1056.8 431.925 1059.46 406.869C1060.79 391.293 1061.46 375.04 1058.8 359.464C1051.47 317.477 1026.15 293.775 984.833 287.68C977.503 286.326 970.174 286.326 962.844 285.649C959.512 293.775 960.845 301.224 960.845 307.997C962.178 349.983 957.513 391.293 946.852 431.925C931.527 489.488 907.539 543.664 869.558 589.037C826.913 639.827 775.606 677.074 710.306 691.295C665.662 700.776 620.351 702.807 575.707 689.94C545.056 681.137 518.403 665.561 497.747 639.827C482.422 620.188 472.427 597.841 469.761 572.784C461.765 502.355 483.754 442.083 529.065 389.938C581.704 328.99 647.005 287.68 720.301 258.56C760.28 242.985 800.926 230.795 842.905 222.669C843.571 219.96 846.903 218.605 850.901 217.251ZM874.222 291.744C870.224 291.744 867.559 291.744 864.894 292.421C770.941 312.737 683.653 346.597 610.357 412.286C583.037 436.666 562.381 465.108 552.386 501.677C547.722 519.962 545.723 538.924 549.721 557.208C556.384 587.005 575.041 606.644 603.693 616.802C622.35 623.574 641.674 622.897 660.331 621.543C708.307 616.802 748.286 596.486 782.269 561.949C816.918 526.734 840.24 484.747 856.232 438.02C871.557 394.002 877.554 348.629 875.555 301.902C875.555 297.838 874.889 295.807 874.222 291.744ZM411.791 150.885C407.126 152.239 403.795 152.916 401.13 153.594C341.826 174.587 285.855 203.03 235.88 241.63C212.559 259.238 189.904 278.877 171.913 302.579C140.595 343.211 123.937 388.584 127.269 440.729C129.268 473.235 153.922 499.646 183.907 502.354C225.219 505.741 263.2 495.582 297.849 473.235C347.157 440.729 380.473 395.356 403.128 341.18C416.455 309.351 423.785 275.491 426.45 240.953C428.449 215.219 427.116 189.486 417.788 164.429C415.122 159.689 413.79 155.625 411.791 150.885Z"
      fill="#9DE0EE" fill-opacity="0.4"/>
</svg>
