<svg width="38" height="38" viewBox="0 0 38 38" fill="none" xmlns="http://www.w3.org/2000/svg">
<rect x="0.5" y="0.5" width="37" height="37" rx="18.5" fill="white"/>
<path d="M6.87327 17.5591V15.6102H7.05045C7.67481 15.6102 8.2401 15.5427 8.74633 15.4077C9.26944 15.2558 9.6913 15.0364 10.0119 14.7496C10.3325 14.4796 10.5856 14.159 10.7713 13.7877C10.9738 13.4165 11.075 13.0115 11.075 12.5728V12.5474H13.3784V29H10.5941V17.5591H6.87327ZM22.2111 29.3037C20.7937 29.3037 19.5956 28.9578 18.6169 28.266C17.655 27.5572 16.9294 26.5616 16.4401 25.2792C15.9507 23.9967 15.706 22.478 15.706 20.7231C15.706 18.9682 15.9507 17.4663 16.4401 16.2176C16.9294 14.9689 17.655 14.0071 18.6169 13.3321C19.5787 12.6403 20.7768 12.2943 22.2111 12.2943C23.6623 12.2943 24.8688 12.6403 25.8307 13.3321C26.8094 14.0071 27.5434 14.9689 28.0328 16.2176C28.5222 17.4663 28.7668 18.9682 28.7668 20.7231C28.7668 22.478 28.5222 23.9967 28.0328 25.2792C27.5434 26.5616 26.8094 27.5572 25.8307 28.266C24.852 28.9578 23.6454 29.3037 22.2111 29.3037ZM22.2364 26.9751C23.1477 26.9751 23.8648 26.7135 24.3879 26.1904C24.9279 25.6504 25.3076 24.9248 25.5269 24.0136C25.7463 23.1024 25.856 22.0056 25.856 20.7231C25.856 19.4575 25.7463 18.3776 25.5269 17.4832C25.3076 16.5889 24.9279 15.8886 24.3879 15.3823C23.8648 14.8761 23.1477 14.623 22.2364 14.623C21.3083 14.623 20.5743 14.8761 20.0343 15.3823C19.5112 15.8886 19.14 16.5889 18.9206 17.4832C18.7181 18.3776 18.6169 19.4575 18.6169 20.7231C18.6169 22.0056 18.7181 23.1024 18.9206 24.0136C19.14 24.9248 19.5197 25.6504 20.0596 26.1904C20.5996 26.7135 21.3252 26.9751 22.2364 26.9751Z" fill="black"/>
<rect x="0.5" y="0.5" width="37" height="37" rx="18.5" stroke="black"/>
</svg>
