<svg width="38" height="38" viewBox="0 0 38 38" fill="none" xmlns="http://www.w3.org/2000/svg">
<rect x="0.5" y="0.5" width="37" height="37" rx="18.5" fill="white"/>
<path d="M10.9013 17.5591V15.6102H11.0785C11.7028 15.6102 12.2681 15.5427 12.7743 15.4077C13.2974 15.2558 13.7193 15.0364 14.0399 14.7496C14.3605 14.4796 14.6136 14.159 14.7993 13.7877C15.0018 13.4165 15.103 13.0115 15.103 12.5728V12.5474H17.4064V29H14.6221V17.5591H10.9013ZM19.3797 17.5591V15.6102H19.5569C20.1812 15.6102 20.7465 15.5427 21.2527 15.4077C21.7758 15.2558 22.1977 15.0364 22.5183 14.7496C22.8389 14.4796 23.092 14.159 23.2777 13.7877C23.4802 13.4165 23.5814 13.0115 23.5814 12.5728V12.5474H25.8848V29H23.1005V17.5591H19.3797Z" fill="black"/>
<rect x="0.5" y="0.5" width="37" height="37" rx="18.5" stroke="black"/>
</svg>
