<svg width="38" height="38" viewBox="0 0 38 38" fill="none" xmlns="http://www.w3.org/2000/svg">
<rect x="0.5" y="0.5" width="37" height="37" rx="18.5" fill="white"/>
<path d="M7.55303 17.5591V15.6102H7.73021C8.35456 15.6102 8.91985 15.5427 9.42609 15.4077C9.94919 15.2558 10.3711 15.0364 10.6917 14.7496C11.0123 14.4796 11.2654 14.159 11.451 13.7877C11.6535 13.4165 11.7548 13.0115 11.7548 12.5728V12.5474H14.0581V29H11.2738V17.5591H7.55303ZM27.44 29H15.9739C15.9739 27.3294 16.227 25.971 16.7332 24.9248C17.2563 23.8617 17.9229 23.0349 18.7329 22.4443C19.5597 21.8368 20.589 21.2715 21.8209 20.7484C22.6308 20.3941 23.2636 20.0144 23.7192 19.6094C24.1748 19.2044 24.4955 18.7994 24.6811 18.3944C24.8667 17.9894 24.9595 17.576 24.9595 17.1542C24.9595 16.6479 24.833 16.2008 24.5798 15.8126C24.3267 15.4245 23.9808 15.1208 23.5421 14.9014C23.1202 14.6821 22.614 14.5724 22.0234 14.5724C20.9265 14.5724 20.0912 14.9014 19.5175 15.5595C18.9438 16.2008 18.6316 17.1542 18.581 18.4197H15.7967C15.8305 17.2385 16.0751 16.1923 16.5307 15.2811C17.0032 14.353 17.7035 13.6274 18.6316 13.1043C19.5597 12.5643 20.6987 12.2943 22.0487 12.2943C23.1624 12.2943 24.1495 12.4968 25.0101 12.9018C25.8707 13.3068 26.5373 13.8721 27.0097 14.5977C27.4822 15.3233 27.7185 16.1586 27.7185 17.1035C27.7185 17.981 27.5329 18.7741 27.1616 19.4828C26.8073 20.1747 26.2841 20.799 25.5923 21.3559C24.9004 21.8959 24.0399 22.3937 23.0105 22.8493C21.9812 23.3049 21.1965 23.7267 20.6565 24.1149C20.1166 24.4861 19.7369 24.8489 19.5175 25.2033C19.2981 25.5407 19.1378 25.971 19.0366 26.4941L19.2138 26.6966C19.5681 26.6629 19.9478 26.6376 20.3528 26.6207C20.7578 26.587 21.2387 26.5701 21.7956 26.5701H27.44V29Z" fill="black"/>
<rect x="0.5" y="0.5" width="37" height="37" rx="18.5" stroke="black"/>
</svg>
