<svg width="38" height="38" viewBox="0 0 38 38" fill="none" xmlns="http://www.w3.org/2000/svg">
<rect x="0.5" y="0.5" width="37" height="37" rx="18.5" fill="white"/>
<path d="M6.74968 17.5591V15.6102H6.92686C7.55121 15.6102 8.11651 15.5427 8.62274 15.4077C9.14585 15.2558 9.56771 15.0364 9.88832 14.7496C10.2089 14.4796 10.462 14.159 10.6477 13.7877C10.8502 13.4165 10.9514 13.0115 10.9514 12.5728V12.5474H13.2548V29H10.4705V17.5591H6.74968ZM28.542 24.2667C28.542 25.3129 28.2467 26.2157 27.6561 26.9751C27.0824 27.7344 26.3061 28.3166 25.3274 28.7216C24.3656 29.1097 23.3278 29.3037 22.2141 29.3037C20.9485 29.3037 19.8264 29.0759 18.8476 28.6203C17.8858 28.1478 17.1265 27.4644 16.5696 26.5701C16.0296 25.6589 15.7596 24.562 15.7596 23.2796H18.6451C18.6451 24.4102 18.9489 25.3129 19.5564 25.9879C20.1807 26.646 21.0835 26.9751 22.2647 26.9751C22.9228 26.9751 23.5134 26.8569 24.0365 26.6207C24.5596 26.3845 24.9646 26.047 25.2515 25.6082C25.5383 25.1526 25.6818 24.638 25.6818 24.0642C25.6818 23.2036 25.3949 22.554 24.8212 22.1152C24.2475 21.6596 23.4712 21.4318 22.4925 21.4318H20.6954V19.255H22.3913C22.8975 19.255 23.3531 19.1707 23.7581 19.0019C24.1631 18.8163 24.4837 18.5547 24.7199 18.2173C24.9562 17.8629 25.0743 17.441 25.0743 16.9517C25.0743 16.1754 24.8212 15.5848 24.315 15.1799C23.8087 14.758 23.1337 14.5471 22.29 14.5471C21.2438 14.5471 20.4845 14.8592 20.012 15.4836C19.5395 16.0911 19.2864 16.7829 19.2526 17.5591H16.4177C16.4177 16.5129 16.6624 15.5933 17.1518 14.8002C17.6411 14.0071 18.333 13.3912 19.2273 12.9524C20.1385 12.5137 21.1847 12.2943 22.366 12.2943C23.3615 12.2943 24.2812 12.4631 25.1249 12.8006C25.9686 13.1212 26.6436 13.6021 27.1499 14.2433C27.673 14.8846 27.9345 15.6608 27.9345 16.572C27.9345 17.1795 27.7826 17.7279 27.4789 18.2173C27.192 18.6897 26.8292 19.0778 26.3905 19.3816C25.9518 19.6685 25.513 19.8541 25.0743 19.9384V20.2675C25.648 20.3687 26.1964 20.5797 26.7196 20.9003C27.2595 21.2209 27.6983 21.6681 28.0358 22.2418C28.3732 22.8155 28.542 23.4905 28.542 24.2667Z" fill="black"/>
<rect x="0.5" y="0.5" width="37" height="37" rx="18.5" stroke="black"/>
</svg>
