<svg width="38" height="38" viewBox="0 0 38 38" fill="none" xmlns="http://www.w3.org/2000/svg">
<rect x="0.5" y="0.5" width="37" height="37" rx="18.5" fill="white"/>
<path d="M24.584 29H13.1178C13.1178 27.3294 13.3709 25.971 13.8772 24.9248C14.4003 23.8617 15.0668 23.0349 15.8768 22.4443C16.7036 21.8368 17.733 21.2715 18.9648 20.7484C19.7748 20.3941 20.4076 20.0144 20.8632 19.6094C21.3188 19.2044 21.6394 18.7994 21.825 18.3944C22.0106 17.9894 22.1034 17.576 22.1034 17.1542C22.1034 16.6479 21.9769 16.2008 21.7238 15.8126C21.4707 15.4245 21.1247 15.1208 20.686 14.9014C20.2641 14.6821 19.7579 14.5724 19.1673 14.5724C18.0705 14.5724 17.2352 14.9014 16.6614 15.5595C16.0877 16.2008 15.7755 17.1542 15.7249 18.4197H12.9406C12.9744 17.2385 13.2191 16.1923 13.6747 15.2811C14.1472 14.353 14.8474 13.6274 15.7755 13.1043C16.7036 12.5643 17.8427 12.2943 19.1926 12.2943C20.3063 12.2943 21.2935 12.4968 22.1541 12.9018C23.0147 13.3068 23.6812 13.8721 24.1537 14.5977C24.6262 15.3233 24.8624 16.1586 24.8624 17.1035C24.8624 17.981 24.6768 18.7741 24.3056 19.4828C23.9512 20.1747 23.4281 20.799 22.7362 21.3559C22.0444 21.8959 21.1838 22.3937 20.1544 22.8493C19.1251 23.3049 18.3404 23.7267 17.8005 24.1149C17.2605 24.4861 16.8808 24.8489 16.6614 25.2033C16.4421 25.5407 16.2818 25.971 16.1805 26.4941L16.3577 26.6966C16.7121 26.6629 17.0917 26.6376 17.4967 26.6207C17.9017 26.587 18.3826 26.5701 18.9395 26.5701H24.584V29Z" fill="black"/>
<rect x="0.5" y="0.5" width="37" height="37" rx="18.5" stroke="black"/>
</svg>
