<svg width="38" height="38" viewBox="0 0 38 38" fill="none" xmlns="http://www.w3.org/2000/svg">
<rect x="0.5" y="0.5" width="37" height="37" rx="18.5" fill="white"/>
<path d="M25.3028 24.2667C25.3028 25.3129 25.0075 26.2157 24.4169 26.9751C23.8432 27.7344 23.0669 28.3166 22.0882 28.7216C21.1264 29.1097 20.0886 29.3037 18.9749 29.3037C17.7093 29.3037 16.5872 29.0759 15.6084 28.6203C14.6466 28.1478 13.8873 27.4644 13.3304 26.5701C12.7904 25.6589 12.5204 24.562 12.5204 23.2796H15.4059C15.4059 24.4102 15.7097 25.3129 16.3172 25.9879C16.9415 26.646 17.8443 26.9751 19.0255 26.9751C19.6836 26.9751 20.2742 26.8569 20.7973 26.6207C21.3204 26.3845 21.7254 26.047 22.0123 25.6082C22.2991 25.1526 22.4426 24.638 22.4426 24.0642C22.4426 23.2036 22.1557 22.554 21.582 22.1152C21.0083 21.6596 20.232 21.4318 19.2533 21.4318H17.4562V19.255H19.1521C19.6583 19.255 20.1139 19.1707 20.5189 19.0019C20.9239 18.8163 21.2445 18.5547 21.4807 18.2173C21.717 17.8629 21.8351 17.441 21.8351 16.9517C21.8351 16.1754 21.582 15.5848 21.0758 15.1799C20.5695 14.758 19.8945 14.5471 19.0508 14.5471C18.0046 14.5471 17.2453 14.8592 16.7728 15.4836C16.3003 16.0911 16.0472 16.7829 16.0134 17.5591H13.1785C13.1785 16.5129 13.4232 15.5933 13.9126 14.8002C14.4019 14.0071 15.0938 13.3912 15.9881 12.9524C16.8993 12.5137 17.9455 12.2943 19.1268 12.2943C20.1223 12.2943 21.042 12.4631 21.8857 12.8006C22.7294 13.1212 23.4044 13.6021 23.9107 14.2433C24.4338 14.8846 24.6953 15.6608 24.6953 16.572C24.6953 17.1795 24.5434 17.7279 24.2397 18.2173C23.9528 18.6897 23.59 19.0778 23.1513 19.3816C22.7126 19.6685 22.2738 19.8541 21.8351 19.9384V20.2675C22.4088 20.3687 22.9572 20.5797 23.4804 20.9003C24.0203 21.2209 24.4591 21.6681 24.7966 22.2418C25.134 22.8155 25.3028 23.4905 25.3028 24.2667Z" fill="black"/>
<rect x="0.5" y="0.5" width="37" height="37" rx="18.5" stroke="black"/>
</svg>
