<svg width="38" height="38" viewBox="0 0 38 38" fill="none" xmlns="http://www.w3.org/2000/svg">
<rect x="0.5" y="0.5" width="37" height="37" rx="18.5" fill="white"/>
<path d="M25.4906 23.3049C25.4906 24.4017 25.229 25.4058 24.7059 26.317C24.1828 27.2282 23.4234 27.9538 22.4278 28.4938C21.4491 29.0337 20.2932 29.3037 18.9602 29.3037C17.5596 29.3037 16.3784 29.0337 15.4165 28.4938C14.4547 27.9369 13.7375 27.2282 13.265 26.3676C12.7926 25.507 12.5479 24.5958 12.531 23.6339H15.4418C15.4925 24.2245 15.6528 24.7814 15.9228 25.3045C16.2096 25.8107 16.6062 26.2242 17.1124 26.5448C17.6355 26.8485 18.2514 27.0004 18.9602 27.0004C19.7195 27.0004 20.3692 26.8316 20.9091 26.4941C21.466 26.1567 21.8794 25.7095 22.1494 25.1526C22.4363 24.5789 22.5797 23.9546 22.5797 23.2796C22.5797 22.6046 22.4278 22.014 22.1241 21.5078C21.8372 21.0015 21.4238 20.6134 20.8838 20.3434C20.3439 20.0734 19.7279 19.9384 19.0361 19.9384C18.2599 19.9384 17.5849 20.1156 17.0112 20.47C16.4543 20.8075 16.0324 21.2546 15.7456 21.8115H13.1891L14.809 12.5474H24.554V14.9267H17.0112L16.6315 16.977C16.4459 17.9388 16.2096 18.7235 15.9228 19.331L16.2518 19.4575C16.5049 18.985 16.9521 18.5885 17.5933 18.2679C18.2514 17.9304 18.977 17.7616 19.7701 17.7616C20.867 17.7616 21.8457 17.9979 22.7063 18.4704C23.5837 18.9429 24.2672 19.601 24.7565 20.4447C25.2459 21.2884 25.4906 22.2418 25.4906 23.3049Z" fill="black"/>
<rect x="0.5" y="0.5" width="37" height="37" rx="18.5" stroke="black"/>
</svg>
