<svg width="38" height="38" viewBox="0 0 38 38" fill="none" xmlns="http://www.w3.org/2000/svg">
<rect x="0.5" y="0.5" width="37" height="37" rx="18.5" fill="white"/>
<path d="M24.2598 23.5074C24.2598 24.6548 23.9982 25.6673 23.4751 26.5448C22.952 27.4222 22.2264 28.1057 21.2983 28.595C20.3702 29.0675 19.3156 29.3037 18.1344 29.3037C16.7169 29.3037 15.5273 28.9663 14.5654 28.2913C13.6036 27.5994 12.878 26.6545 12.3886 25.4564C11.9161 24.2583 11.6799 22.883 11.6799 21.3306C11.6799 19.5588 11.9161 17.9979 12.3886 16.6479C12.8611 15.298 13.5867 14.2349 14.5654 13.4587C15.5441 12.6824 16.776 12.2943 18.2609 12.2943C19.4421 12.2943 20.4546 12.5137 21.2983 12.9524C22.1589 13.3743 22.8255 13.948 23.2979 14.6736C23.7704 15.3992 24.091 16.2261 24.2598 17.1542H21.3236C21.2224 16.4792 20.9018 15.8886 20.3618 15.3823C19.8387 14.8592 19.13 14.5977 18.2356 14.5977C17.3581 14.5977 16.6241 14.893 16.0335 15.4836C15.4429 16.0742 15.0042 16.842 14.7173 17.787C14.4304 18.7319 14.2786 19.7528 14.2617 20.8497L14.5907 20.875C14.7932 20.3012 15.1054 19.8119 15.5273 19.4069C15.966 18.985 16.4722 18.6729 17.046 18.4704C17.6197 18.2679 18.2272 18.1666 18.8684 18.1666C19.8977 18.1666 20.8174 18.3944 21.6274 18.85C22.4542 19.2888 23.0954 19.9131 23.5511 20.7231C24.0235 21.5331 24.2598 22.4612 24.2598 23.5074ZM14.7679 23.558C14.7679 24.5873 15.0801 25.4311 15.7045 26.0892C16.3457 26.7304 17.1641 27.051 18.1597 27.051C18.8347 27.051 19.4168 26.8991 19.9062 26.5954C20.4124 26.2917 20.8005 25.8782 21.0705 25.3551C21.3574 24.832 21.5008 24.233 21.5008 23.558C21.5008 22.8324 21.3574 22.2334 21.0705 21.7609C20.8005 21.2715 20.4124 20.9172 19.9062 20.6978C19.4 20.4615 18.8178 20.3434 18.1597 20.3434C17.5016 20.3434 16.9194 20.4784 16.4132 20.7484C15.9069 21.0184 15.502 21.3981 15.1982 21.8874C14.9114 22.3768 14.7679 22.9336 14.7679 23.558Z" fill="black"/>
<rect x="0.5" y="0.5" width="37" height="37" rx="18.5" stroke="black"/>
</svg>
