<svg width="38" height="38" viewBox="0 0 38 38" fill="none" xmlns="http://www.w3.org/2000/svg">
<rect x="0.5" y="0.5" width="37" height="37" rx="18.5" fill="white"/>
<path d="M14.6288 28.2153C14.6288 26.4942 14.8904 24.7392 15.4135 22.9505C15.9535 21.1618 16.7044 19.5588 17.6662 18.1413C18.6449 16.7239 19.7671 15.703 21.0326 15.0786L20.9061 14.7496C20.2311 14.8677 19.4886 14.9267 18.6787 14.9267H12.3508V12.5474H23.741V14.9014C22.2898 16.0826 21.117 17.3313 20.2227 18.6475C19.3452 19.9638 18.6871 21.4318 18.2484 23.0518C17.8096 24.6548 17.5903 26.4604 17.5903 28.4685V29H14.6288V28.2153Z" fill="black"/>
<rect x="0.5" y="0.5" width="37" height="37" rx="18.5" stroke="black"/>
</svg>
