<svg width="38" height="38" viewBox="0 0 38 38" fill="none" xmlns="http://www.w3.org/2000/svg">
<rect x="0.5" y="0.5" width="37" height="37" rx="18.5" fill="white"/>
<path d="M22.4149 24.1149C22.4149 23.1024 22.1112 22.3515 21.5037 21.8621C20.8962 21.3728 20.0694 21.1281 19.0231 21.1281C18.3482 21.1281 17.7491 21.2378 17.226 21.4571C16.7029 21.6596 16.2979 21.9887 16.0111 22.4443C15.7242 22.883 15.5808 23.4399 15.5808 24.1149C15.5808 25.1104 15.8929 25.8529 16.5173 26.3423C17.1416 26.8316 17.9769 27.0763 19.0231 27.0763C19.715 27.0763 20.3056 26.9751 20.795 26.7726C21.3012 26.5532 21.6977 26.2242 21.9846 25.7854C22.2715 25.3467 22.4149 24.7898 22.4149 24.1149ZM16.1629 16.8251C16.1629 17.6013 16.416 18.1919 16.9223 18.5969C17.4454 19.0019 18.1457 19.2044 19.0231 19.2044C19.6137 19.2044 20.12 19.12 20.5418 18.9513C20.9806 18.7657 21.3096 18.4957 21.529 18.1413C21.7652 17.787 21.8833 17.3482 21.8833 16.8251C21.8833 16.0658 21.6302 15.4836 21.124 15.0786C20.6178 14.6568 19.9175 14.4458 19.0231 14.4458C18.4494 14.4458 17.9432 14.5386 17.5044 14.7242C17.0657 14.9099 16.7282 15.1799 16.492 15.5342C16.2726 15.8886 16.1629 16.3189 16.1629 16.8251ZM25.3764 24.2414C25.3764 25.3383 25.0895 26.2663 24.5158 27.0257C23.942 27.785 23.1742 28.3588 22.2124 28.7469C21.2674 29.1181 20.2043 29.3037 19.0231 29.3037C17.8082 29.3037 16.7198 29.1097 15.7579 28.7216C14.7961 28.3166 14.0283 27.7344 13.4546 26.9751C12.8977 26.2157 12.6193 25.3045 12.6193 24.2414C12.6193 23.4652 12.7965 22.7987 13.1508 22.2418C13.5052 21.6849 13.9524 21.2378 14.4924 20.9003C15.0492 20.5459 15.6398 20.3097 16.2642 20.1916V19.8878C15.7917 19.8034 15.3276 19.6178 14.872 19.331C14.4333 19.0441 14.0705 18.6729 13.7836 18.2173C13.4968 17.7448 13.3533 17.2048 13.3533 16.5973C13.3533 15.7536 13.5727 15.0111 14.0114 14.3699C14.467 13.7287 15.1251 13.2224 15.9857 12.8512C16.8463 12.48 17.8672 12.2943 19.0484 12.2943C20.1959 12.2943 21.1999 12.48 22.0605 12.8512C22.9211 13.2224 23.5708 13.7287 24.0095 14.3699C24.4651 15.0111 24.6929 15.7536 24.6929 16.5973C24.6929 17.2048 24.5411 17.7448 24.2373 18.2173C23.9505 18.6729 23.5792 19.0441 23.1236 19.331C22.6849 19.6178 22.2377 19.8034 21.7821 19.8878V20.1916C22.7439 20.3434 23.5792 20.7737 24.288 21.4824C25.0136 22.1912 25.3764 23.1108 25.3764 24.2414Z" fill="black"/>
<rect x="0.5" y="0.5" width="37" height="37" rx="18.5" stroke="black"/>
</svg>
