<svg width="38" height="38" viewBox="0 0 38 38" fill="none" xmlns="http://www.w3.org/2000/svg">
<rect x="0.5" y="0.5" width="37" height="37" rx="18.5" fill="white"/>
<path d="M11.7688 18.0907C11.7688 16.9432 12.0303 15.9308 12.5535 15.0533C13.0766 14.1758 13.8022 13.5009 14.7303 13.0284C15.6583 12.539 16.713 12.2943 17.8942 12.2943C19.3117 12.2943 20.5013 12.6403 21.4631 13.3321C22.425 14.0071 23.1421 14.9436 23.6146 16.1417C24.104 17.3398 24.3487 18.715 24.3487 20.2675C24.3487 22.0393 24.1124 23.6002 23.6399 24.9501C23.1675 26.3001 22.4419 27.3632 21.4631 28.1394C20.4844 28.9156 19.2526 29.3037 17.7676 29.3037C16.5864 29.3037 15.5655 29.0928 14.7049 28.6709C13.8612 28.2322 13.2031 27.65 12.7306 26.9244C12.2582 26.1988 11.9375 25.372 11.7688 24.4439H14.7049C14.8062 25.1189 15.1184 25.7179 15.6415 26.241C16.1815 26.7473 16.8986 27.0004 17.793 27.0004C18.6704 27.0004 19.4045 26.7051 19.9951 26.1145C20.5857 25.5239 21.0244 24.7561 21.3113 23.8111C21.5981 22.8662 21.75 21.8452 21.7669 20.7484L21.4378 20.7231C21.2353 21.2968 20.9147 21.7946 20.476 22.2165C20.0541 22.6215 19.5563 22.9252 18.9826 23.1277C18.4089 23.3302 17.8014 23.4314 17.1602 23.4314C16.1308 23.4314 15.2027 23.2121 14.3759 22.7733C13.5659 22.3177 12.9247 21.6849 12.4522 20.875C11.9966 20.065 11.7688 19.1369 11.7688 18.0907ZM21.2607 18.0401C21.2607 17.0107 20.94 16.1754 20.2988 15.5342C19.6745 14.8761 18.8645 14.5471 17.8689 14.5471C17.1939 14.5471 16.6033 14.6989 16.0971 15.0027C15.6077 15.3064 15.2196 15.7198 14.9327 16.2429C14.6628 16.7661 14.5278 17.3651 14.5278 18.0401C14.5278 18.7657 14.6628 19.3731 14.9327 19.8625C15.2196 20.335 15.6162 20.6894 16.1224 20.9256C16.6286 21.145 17.2108 21.2546 17.8689 21.2546C18.527 21.2546 19.1092 21.1196 19.6154 20.8497C20.1216 20.5797 20.5182 20.2 20.805 19.7106C21.1088 19.2213 21.2607 18.6644 21.2607 18.0401Z" fill="black"/>
<rect x="0.5" y="0.5" width="37" height="37" rx="18.5" stroke="black"/>
</svg>
