<svg width="629" height="255" viewBox="0 0 629 255" fill="none" xmlns="http://www.w3.org/2000/svg">
    <path fill-rule="evenodd" clip-rule="evenodd" d="M211.035 31.1738C184.101 54.5509 167.069 89.0364 167.069 127.5C167.069 165.964 184.101 200.449 211.035 223.826C188.66 243.246 159.453 255 127.5 255C57.0837 255 0 197.916 0 127.5C0 57.0837 57.0837 3.05176e-05 127.5 3.05176e-05C159.453 3.05176e-05 188.66 11.7539 211.035 31.1738Z" fill="#BFFDE8"/>
    <path fill-rule="evenodd" clip-rule="evenodd" d="M407.414 31.1738C380.481 54.5508 363.449 89.0364 363.449 127.5C363.449 165.964 380.481 200.449 407.414 223.826C385.04 243.246 355.833 255 323.88 255C253.464 255 196.38 197.916 196.38 127.5C196.38 57.0837 253.464 0 323.88 0C355.833 0 385.04 11.7539 407.414 31.1738Z" fill="#BFFDE8"/>
    <path fill-rule="evenodd" clip-rule="evenodd" d="M417.673 31.1738C444.606 54.5508 461.638 89.0364 461.638 127.5C461.638 165.964 444.606 200.449 417.673 223.826C440.047 243.246 469.254 255 501.207 255C571.623 255 628.707 197.916 628.707 127.5C628.707 57.0837 571.623 -4.99042e-06 501.207 -1.11464e-05C469.254 -1.39398e-05 440.047 11.7539 417.673 31.1738Z" fill="#BFFDE8"/>
</svg>

